<svg width="231" height="78" viewBox="0 0 231 78" fill="none" xmlns="http://www.w3.org/2000/svg">
<g clip-path="url(#clip0_816_8744)">
<path d="M212.144 0.164312H18.894C18.1896 0.164312 17.4936 0.164312 16.7911 0.168154C16.203 0.171996 15.6195 0.183157 15.0258 0.192551C13.7359 0.20773 12.449 0.32121 11.1763 0.532006C9.90547 0.747391 8.67441 1.15345 7.52479 1.73646C6.37659 2.32439 5.32744 3.08836 4.41541 4.00063C3.49859 4.91034 2.73435 5.96185 2.15208 7.11471C1.5682 8.26527 1.16333 9.49821 0.951467 10.7709C0.737587 12.0421 0.622496 13.3278 0.607228 14.6167C0.589401 15.2057 0.587519 15.7966 0.578125 16.3857V60.7876C0.587519 61.3841 0.589401 61.9619 0.607228 62.5585C0.622501 63.8474 0.737592 65.1331 0.951467 66.4041C1.16275 67.6776 1.56764 68.9113 2.15208 70.0623C2.73408 71.2114 3.49843 72.2586 4.41541 73.1633C5.32398 74.0796 6.37381 74.8441 7.52479 75.4275C8.6744 76.0121 9.90533 76.4206 11.1763 76.6393C12.4492 76.8484 13.736 76.9619 15.0258 76.9789C15.6195 76.992 16.203 76.9995 16.7911 76.9995C17.4936 77.0033 18.1896 77.0033 18.894 77.0033H212.144C212.835 77.0033 213.536 77.0033 214.227 76.9995C214.812 76.9995 215.412 76.992 215.998 76.9789C217.285 76.9628 218.569 76.8493 219.84 76.6393C221.115 76.419 222.35 76.0107 223.505 75.4275C224.655 74.8438 225.704 74.0793 226.612 73.1633C227.526 72.2551 228.292 71.2086 228.882 70.0623C229.462 68.9104 229.863 67.6769 230.071 66.4041C230.285 65.1329 230.404 63.8475 230.427 62.5585C230.435 61.9619 230.435 61.3841 230.435 60.7876C230.45 60.0897 230.45 59.3957 230.45 58.6864V18.483C230.45 17.7795 230.45 17.0816 230.435 16.3857C230.435 15.7966 230.435 15.2057 230.427 14.6167C230.404 13.3276 230.285 12.0422 230.071 10.7709C229.862 9.49887 229.461 8.26603 228.882 7.11463C227.696 4.80384 225.815 2.92288 223.505 1.73628C222.35 1.1547 221.115 0.74875 219.84 0.531833C218.57 0.320109 217.285 0.206589 215.998 0.192282C215.412 0.182907 214.812 0.17165 214.227 0.167904C213.536 0.164062 212.835 0.164062 212.144 0.164062V0.164312Z" fill="#A6A6A6"/>
<path d="M16.8011 75.325C16.2159 75.325 15.6447 75.3175 15.064 75.3044C13.8611 75.2887 12.6609 75.184 11.4734 74.9911C10.3662 74.8004 9.29353 74.4457 8.29089 73.9386C7.29744 73.4357 6.39134 72.7763 5.60729 71.9857C4.81189 71.2044 4.14969 70.2982 3.64691 69.3031C3.1386 68.3015 2.78682 67.2279 2.60382 66.1196C2.4062 64.9289 2.29928 63.7248 2.28398 62.5178C2.2718 62.1127 2.25586 60.7638 2.25586 60.7638V16.3882C2.25586 16.3882 2.27284 15.06 2.28408 14.6698C2.29873 13.4647 2.40503 12.2625 2.60206 11.0736C2.78539 9.96234 3.13745 8.88563 3.64603 7.88073C4.14695 6.88627 4.80548 5.97941 5.59609 5.1953C6.38581 4.40375 7.29481 3.74098 8.28995 3.23116C9.29029 2.72572 10.3609 2.37349 11.4659 2.18627C12.6573 1.99141 13.8616 1.88607 15.0687 1.87111L16.8021 1.84766H214.218L215.972 1.87205C217.168 1.88627 218.361 1.99067 219.542 2.18438C220.658 2.37396 221.74 2.72865 222.752 3.23679C224.745 4.26422 226.367 5.8897 227.391 7.88542C227.891 8.88338 228.238 9.9513 228.419 11.0529C228.618 12.2516 228.73 13.4633 228.753 14.6782C228.758 15.2223 228.758 15.8066 228.758 16.3882C228.774 17.1085 228.774 17.7942 228.774 18.4855V58.6889C228.774 59.3868 228.774 60.0678 228.758 60.7544C228.758 61.3791 228.758 61.9513 228.751 62.5403C228.728 63.7336 228.619 64.9236 228.423 66.1008C228.243 67.217 227.893 68.299 227.385 69.3088C226.879 70.2932 226.221 71.1915 225.434 71.9707C224.65 72.7656 223.742 73.4288 222.746 73.9349C221.737 74.4459 220.657 74.802 219.542 74.9911C218.355 75.185 217.154 75.2898 215.951 75.3044C215.389 75.3175 214.799 75.325 214.227 75.325L212.145 75.3288L16.8011 75.325Z" fill="black"/>
<path d="M48.1577 39.1631C48.1784 37.5598 48.6042 35.9877 49.3957 34.5931C50.1872 33.1986 51.3186 32.0269 52.6846 31.1871C51.8168 29.9478 50.672 28.9278 49.3411 28.2083C48.0102 27.4888 46.5299 27.0896 45.0177 27.0423C41.7919 26.7037 38.6646 28.9725 37.0208 28.9725C35.3452 28.9725 32.8143 27.0759 30.089 27.132C28.3262 27.1889 26.6082 27.7015 25.1023 28.6199C23.5965 29.5382 22.3543 30.8309 21.4966 32.3721C17.7815 38.8044 20.5526 48.2576 24.1115 53.4569C25.892 56.0029 27.973 58.8468 30.6959 58.7459C33.3604 58.6354 34.3555 57.0468 37.5718 57.0468C40.7582 57.0468 41.6919 58.7459 44.47 58.6818C47.3292 58.6354 49.1306 56.1245 50.8486 53.5544C52.128 51.7403 53.1124 49.7354 53.7655 47.6138C52.1044 46.9113 50.6869 45.7353 49.6897 44.2325C48.6924 42.7297 48.1596 40.9667 48.1577 39.1631V39.1631Z" fill="white"/>
<path d="M42.9104 23.6273C44.4693 21.7558 45.2373 19.3504 45.0514 16.9219C42.6697 17.172 40.4696 18.3103 38.8897 20.1099C38.1172 20.9891 37.5255 22.0119 37.1485 23.1199C36.7715 24.2278 36.6166 25.3992 36.6926 26.5671C37.8839 26.5794 39.0624 26.3212 40.1394 25.8119C41.2165 25.3027 42.1639 24.5557 42.9104 23.6273Z" fill="white"/>
<path d="M81.8406 52.3015H72.7478L70.5642 58.7492H66.7129L75.3254 34.8945H79.3268L87.9393 58.7492H84.0223L81.8406 52.3015ZM73.6895 49.3263H80.897L77.344 38.8622H77.2446L73.6895 49.3263Z" fill="white"/>
<path d="M106.539 50.054C106.539 55.4586 103.646 58.931 99.2809 58.931C98.1751 58.9888 97.0754 58.7341 96.1076 58.196C95.1398 57.6578 94.3431 56.858 93.8088 55.8882H93.7262V64.5025H90.1562V41.3571H93.6118V44.2498H93.6775C94.2364 43.2846 95.0465 42.4889 96.0217 41.9475C96.9968 41.4061 98.1005 41.1391 99.2153 41.1751C103.629 41.1751 106.539 44.6644 106.539 50.054ZM102.87 50.054C102.87 46.5328 101.05 44.2179 98.2735 44.2179C95.5459 44.2179 93.7112 46.5816 93.7112 50.054C93.7112 53.5583 95.5459 55.9051 98.2735 55.9051C101.05 55.9051 102.87 53.607 102.87 50.054Z" fill="white"/>
<path d="M125.68 50.054C125.68 55.4586 122.787 58.931 118.422 58.931C117.316 58.9888 116.216 58.7341 115.248 58.1959C114.28 57.6578 113.484 56.858 112.949 55.8881H112.867V64.5025H109.297V41.357H112.752V44.2498H112.818C113.377 43.2845 114.187 42.4889 115.162 41.9475C116.137 41.4061 117.241 41.1391 118.356 41.1751C122.77 41.1751 125.68 44.6643 125.68 50.054ZM122.01 50.054C122.01 46.5328 120.191 44.2179 117.414 44.2179C114.687 44.2179 112.852 46.5816 112.852 50.054C112.852 53.5582 114.687 55.9051 117.414 55.9051C120.191 55.9051 122.01 53.607 122.01 50.054H122.01Z" fill="white"/>
<path d="M138.332 52.102C138.597 54.4676 140.895 56.0208 144.035 56.0208C147.044 56.0208 149.209 54.4675 149.209 52.3345C149.209 50.483 147.903 49.3743 144.812 48.6145L141.72 47.8698C137.34 46.8117 135.306 44.7632 135.306 41.439C135.306 37.3232 138.893 34.4961 143.986 34.4961C149.027 34.4961 152.482 37.3232 152.599 41.439H148.995C148.779 39.0584 146.811 37.6214 143.936 37.6214C141.06 37.6214 139.092 39.0753 139.092 41.1914C139.092 42.8779 140.349 43.8702 143.423 44.6299L146.052 45.2753C150.946 46.4327 152.98 48.3988 152.98 51.888C152.98 56.3509 149.425 59.146 143.77 59.146C138.48 59.146 134.908 56.4165 134.678 52.1018L138.332 52.102Z" fill="white"/>
<path d="M160.684 37.2422V41.358H163.991V44.1851H160.684V53.7731C160.684 55.2626 161.346 55.9567 162.8 55.9567C163.193 55.9498 163.585 55.9223 163.974 55.8741V58.6843C163.321 58.8064 162.656 58.8617 161.991 58.8494C158.47 58.8494 157.097 57.5268 157.097 54.1538V44.1851H154.568V41.358H157.097V37.2422H160.684Z" fill="white"/>
<path d="M165.908 50.0553C165.908 44.5832 169.131 41.1445 174.157 41.1445C179.199 41.1445 182.407 44.5831 182.407 50.0553C182.407 55.5425 179.216 58.9661 174.157 58.9661C169.099 58.9661 165.908 55.5425 165.908 50.0553ZM178.77 50.0553C178.77 46.3015 177.049 44.086 174.157 44.086C171.264 44.086 169.546 46.3184 169.546 50.0553C169.546 53.8241 171.264 56.0227 174.157 56.0227C177.049 56.0227 178.77 53.8241 178.77 50.0553H178.77Z" fill="white"/>
<path d="M185.35 41.3569H188.754V44.3171H188.837C189.067 43.3926 189.609 42.5755 190.371 42.0033C191.133 41.4311 192.068 41.1385 193.02 41.1749C193.432 41.1735 193.842 41.2181 194.244 41.3081V44.6473C193.724 44.4886 193.182 44.4157 192.64 44.4316C192.121 44.4105 191.604 44.502 191.124 44.6996C190.644 44.8973 190.213 45.1964 189.859 45.5766C189.506 45.9567 189.239 46.4088 189.077 46.9019C188.914 47.3949 188.861 47.9172 188.92 48.433V58.7488H185.35L185.35 41.3569Z" fill="white"/>
<path d="M210.704 53.6421C210.224 56.7994 207.149 58.9661 203.215 58.9661C198.156 58.9661 195.016 55.5762 195.016 50.1378C195.016 44.6826 198.173 41.1445 203.065 41.1445C207.877 41.1445 210.903 44.45 210.903 49.7233V50.9464H198.619V51.1621C198.563 51.8022 198.643 52.447 198.854 53.0537C199.066 53.6604 199.404 54.2152 199.847 54.6811C200.289 55.147 200.826 55.5135 201.421 55.7561C202.016 55.9987 202.656 56.112 203.298 56.0884C204.142 56.1674 204.988 55.972 205.712 55.5313C206.435 55.0905 206.998 54.428 207.314 53.6421L210.704 53.6421ZM198.636 48.4514H207.331C207.363 47.8758 207.276 47.2999 207.075 46.7597C206.874 46.2195 206.563 45.7267 206.163 45.3122C205.762 44.8978 205.28 44.5706 204.747 44.3511C204.214 44.1317 203.642 44.0249 203.065 44.0373C202.484 44.0338 201.908 44.1455 201.37 44.3659C200.832 44.5863 200.343 44.9111 199.931 45.3215C199.519 45.7319 199.193 46.2197 198.971 46.7569C198.748 47.2941 198.635 47.87 198.636 48.4514V48.4514Z" fill="white"/>
<path d="M73.2418 16.9388C73.9902 16.8851 74.7413 16.9981 75.4407 17.2698C76.1402 17.5415 76.7706 17.9651 77.2865 18.5099C77.8025 19.0547 78.1911 19.7073 78.4243 20.4205C78.6575 21.1337 78.7295 21.8898 78.6351 22.6342C78.6351 26.296 76.656 28.4009 73.2418 28.4009H69.1016V16.9388H73.2418ZM70.8818 26.7799H73.0429C73.5777 26.8119 74.1129 26.7242 74.6096 26.5233C75.1062 26.3223 75.5518 26.0131 75.9139 25.6182C76.276 25.2234 76.5455 24.7527 76.7027 24.2405C76.86 23.7284 76.9011 23.1876 76.823 22.6575C76.8954 22.1296 76.8502 21.5921 76.6905 21.0837C76.5308 20.5753 76.2607 20.1085 75.8994 19.7168C75.5382 19.325 75.0947 19.018 74.6009 18.8178C74.107 18.6176 73.575 18.529 73.0429 18.5586H70.8818V26.7799Z" fill="white"/>
<path d="M80.6462 24.078C80.5919 23.5095 80.6569 22.936 80.8372 22.3941C81.0174 21.8523 81.3089 21.3541 81.693 20.9315C82.0771 20.5089 82.5453 20.1713 83.0675 19.9402C83.5897 19.7092 84.1545 19.5898 84.7255 19.5898C85.2966 19.5898 85.8613 19.7092 86.3835 19.9402C86.9057 20.1713 87.3739 20.5089 87.758 20.9315C88.1421 21.3541 88.4336 21.8523 88.6139 22.3941C88.7941 22.936 88.8591 23.5095 88.8048 24.078C88.8602 24.647 88.7959 25.2213 88.6161 25.7641C88.4363 26.3068 88.145 26.8059 87.7608 27.2293C87.3766 27.6527 86.9081 27.9911 86.3854 28.2226C85.8626 28.4542 85.2972 28.5738 84.7255 28.5738C84.1538 28.5738 83.5884 28.4542 83.0656 28.2226C82.5429 27.9911 82.0744 27.6527 81.6902 27.2293C81.306 26.8059 81.0147 26.3068 80.8349 25.7641C80.6551 25.2213 80.5908 24.647 80.6462 24.078V24.078ZM87.0489 24.078C87.0489 22.203 86.2066 21.1065 84.7283 21.1065C83.2444 21.1065 82.4097 22.203 82.4097 24.078C82.4097 25.968 83.2445 27.0561 84.7283 27.0561C86.2066 27.056 87.0489 25.9605 87.0489 24.078H87.0489Z" fill="white"/>
<path d="M99.6514 28.4H97.8805L96.0928 22.0293H95.9577L94.1774 28.4H92.4234L90.0391 19.75H91.7706L93.3201 26.3505H93.4477L95.2261 19.75H96.8638L98.6422 26.3505H98.7773L100.319 19.75H102.026L99.6514 28.4Z" fill="white"/>
<path d="M104.029 19.7497H105.673V21.1238H105.8C106.017 20.6303 106.382 20.2166 106.844 19.9403C107.307 19.6641 107.844 19.5391 108.382 19.5827C108.802 19.5511 109.225 19.6146 109.618 19.7684C110.011 19.9223 110.364 20.1626 110.652 20.4716C110.94 20.7806 111.154 21.1503 111.279 21.5533C111.404 21.9564 111.437 22.3825 111.376 22.8V28.3996H109.668V23.2287C109.668 21.8386 109.064 21.1473 107.802 21.1473C107.516 21.134 107.231 21.1826 106.966 21.2899C106.7 21.3971 106.462 21.5604 106.265 21.7686C106.069 21.9768 105.92 22.225 105.829 22.4961C105.738 22.7672 105.706 23.0549 105.736 23.3393V28.3997H104.029L104.029 19.7497Z" fill="white"/>
<path d="M114.098 16.375H115.805V28.4017H114.098V16.375Z" fill="white"/>
<path d="M118.175 24.0703C118.121 23.5018 118.186 22.9283 118.367 22.3864C118.547 21.8445 118.838 21.3463 119.223 20.9237C119.607 20.5011 120.075 20.1635 120.597 19.9324C121.119 19.7014 121.684 19.582 122.255 19.582C122.826 19.582 123.391 19.7014 123.913 19.9324C124.436 20.1635 124.904 20.5011 125.288 20.9237C125.672 21.3463 125.964 21.8445 126.144 22.3864C126.324 22.9283 126.389 23.5018 126.335 24.0703C126.39 24.6394 126.326 25.2137 126.146 25.7564C125.966 26.2992 125.675 26.7983 125.291 27.2217C124.906 27.645 124.438 27.9834 123.915 28.2149C123.392 28.4465 122.827 28.5661 122.255 28.5661C121.683 28.5661 121.118 28.4465 120.595 28.2149C120.073 27.9834 119.604 27.645 119.22 27.2217C118.836 26.7983 118.544 26.2992 118.364 25.7564C118.184 25.2137 118.12 24.6394 118.175 24.0703V24.0703ZM124.578 24.0703C124.578 22.1953 123.736 21.0988 122.258 21.0988C120.774 21.0988 119.939 22.1953 119.939 24.0703C119.939 25.9604 120.774 27.0484 122.258 27.0484C123.736 27.0484 124.578 25.9528 124.578 24.0703H124.578Z" fill="white"/>
<path d="M128.133 25.9606C128.133 24.4035 129.292 23.5059 131.35 23.3783L133.693 23.2433V22.4966C133.693 21.583 133.089 21.0672 131.922 21.0672C130.969 21.0672 130.309 21.417 130.119 22.0286H128.467C128.641 20.5428 130.039 19.5898 132.001 19.5898C134.17 19.5898 135.393 20.6694 135.393 22.4966V28.4068H133.749V27.1912H133.614C133.34 27.6272 132.955 27.9827 132.499 28.2213C132.042 28.4599 131.531 28.5731 131.016 28.5493C130.653 28.5871 130.286 28.5484 129.939 28.4356C129.592 28.3228 129.272 28.1386 129 27.8947C128.728 27.6508 128.511 27.3526 128.362 27.0195C128.212 26.6864 128.134 26.3257 128.133 25.9606V25.9606ZM133.693 25.2214V24.4983L131.581 24.6333C130.39 24.713 129.849 25.1183 129.849 25.8808C129.849 26.6593 130.525 27.1124 131.453 27.1124C131.725 27.1399 132 27.1125 132.262 27.0316C132.523 26.9507 132.765 26.8182 132.974 26.6417C133.183 26.4653 133.354 26.2487 133.478 26.0047C133.601 25.7607 133.675 25.4943 133.693 25.2214V25.2214Z" fill="white"/>
<path d="M137.637 24.073C137.637 21.3397 139.042 19.6082 141.227 19.6082C141.768 19.5833 142.304 19.7128 142.774 19.9815C143.244 20.2503 143.627 20.6472 143.88 21.1258H144.007V16.375H145.715V28.4017H144.079V27.0351H143.944C143.672 27.5105 143.275 27.9025 142.796 28.1685C142.317 28.4345 141.775 28.5645 141.227 28.5443C139.027 28.5444 137.637 26.8128 137.637 24.073ZM139.4 24.073C139.4 25.9077 140.265 27.0117 141.711 27.0117C143.15 27.0117 144.039 25.8918 144.039 24.0805C144.039 22.2777 143.141 21.1418 141.711 21.1418C140.274 21.1418 139.4 22.2533 139.4 24.073H139.4Z" fill="white"/>
<path d="M152.777 24.078C152.723 23.5095 152.788 22.936 152.968 22.3941C153.148 21.8523 153.44 21.3541 153.824 20.9315C154.208 20.5089 154.676 20.1713 155.198 19.9402C155.721 19.7092 156.285 19.5898 156.856 19.5898C157.427 19.5898 157.992 19.7092 158.514 19.9402C159.037 20.1713 159.505 20.5089 159.889 20.9315C160.273 21.3541 160.564 21.8523 160.745 22.3941C160.925 22.936 160.99 23.5095 160.936 24.078C160.991 24.647 160.927 25.2213 160.747 25.7641C160.567 26.3068 160.276 26.8059 159.892 27.2293C159.507 27.6527 159.039 27.9911 158.516 28.2226C157.993 28.4542 157.428 28.5738 156.856 28.5738C156.285 28.5738 155.719 28.4542 155.196 28.2226C154.674 27.9911 154.205 27.6527 153.821 27.2293C153.437 26.8059 153.146 26.3068 152.966 25.7641C152.786 25.2213 152.722 24.647 152.777 24.078V24.078ZM159.18 24.078C159.18 22.203 158.337 21.1065 156.859 21.1065C155.375 21.1065 154.541 22.203 154.541 24.078C154.541 25.968 155.375 27.0561 156.859 27.0561C158.337 27.056 159.18 25.9605 159.18 24.078Z" fill="white"/>
<path d="M163.227 19.7497H164.87V21.1238H164.997C165.214 20.6303 165.579 20.2166 166.042 19.9403C166.504 19.6641 167.042 19.5391 167.579 19.5827C168 19.5511 168.422 19.6146 168.815 19.7684C169.208 19.9223 169.562 20.1626 169.849 20.4716C170.137 20.7806 170.351 21.1503 170.476 21.5533C170.602 21.9564 170.635 22.3825 170.573 22.8V28.3996H168.866V23.2287C168.866 21.8386 168.262 21.1473 166.999 21.1473C166.713 21.134 166.428 21.1826 166.163 21.2899C165.898 21.3971 165.659 21.5604 165.463 21.7686C165.266 21.9768 165.118 22.225 165.026 22.4961C164.935 22.7672 164.903 23.0549 164.934 23.3393V28.3997H163.227V19.7497Z" fill="white"/>
<path d="M180.219 17.6016V19.7945H182.093V21.2325H180.219V25.6804C180.219 26.5864 180.592 26.9832 181.442 26.9832C181.66 26.9825 181.877 26.9693 182.093 26.9438V28.3658C181.786 28.4206 181.476 28.4498 181.164 28.453C179.266 28.453 178.51 27.7851 178.51 26.1174V21.2324H177.137V19.7945H178.51V17.6016H180.219Z" fill="white"/>
<path d="M184.424 16.375H186.116V21.1418H186.251C186.478 20.6437 186.853 20.2276 187.325 19.9503C187.797 19.673 188.343 19.548 188.888 19.5923C189.307 19.5695 189.726 19.6394 190.114 19.797C190.503 19.9546 190.852 20.196 191.136 20.504C191.421 20.812 191.634 21.179 191.76 21.5788C191.887 21.9787 191.923 22.4014 191.868 22.817V28.4017H190.159V23.2382C190.159 21.8565 189.515 21.1568 188.309 21.1568C188.016 21.1327 187.72 21.1731 187.444 21.275C187.168 21.3769 186.917 21.5379 186.71 21.7468C186.503 21.9557 186.343 22.2074 186.243 22.4843C186.143 22.7611 186.105 23.0565 186.131 23.3498V28.4017H184.424L184.424 16.375Z" fill="white"/>
<path d="M201.822 26.0636C201.59 26.8541 201.087 27.538 200.402 27.9955C199.717 28.4529 198.893 28.6549 198.074 28.5661C197.504 28.5811 196.937 28.472 196.414 28.2462C195.891 28.0204 195.422 27.6835 195.042 27.2587C194.662 26.8339 194.379 26.3314 194.212 25.7862C194.046 25.241 194 24.6661 194.078 24.1013C194.002 23.5349 194.049 22.9587 194.215 22.4119C194.381 21.865 194.663 21.3602 195.041 20.9317C195.419 20.5032 195.885 20.161 196.407 19.9281C196.929 19.6953 197.495 19.5773 198.066 19.5822C200.473 19.5822 201.925 21.2265 201.925 23.9428V24.5385H195.817V24.6341C195.79 24.9516 195.83 25.2711 195.934 25.5722C196.038 25.8733 196.204 26.1494 196.421 26.3827C196.638 26.616 196.901 26.8014 197.194 26.927C197.486 27.0527 197.802 27.1157 198.121 27.1122C198.529 27.1612 198.943 27.0877 199.309 26.9009C199.676 26.7142 199.978 26.4227 200.178 26.0635L201.822 26.0636ZM195.817 23.2759H200.186C200.207 22.9856 200.168 22.694 200.07 22.4198C199.972 22.1457 199.818 21.895 199.618 21.684C199.417 21.473 199.175 21.3062 198.906 21.1945C198.637 21.0827 198.348 21.0284 198.057 21.0351C197.761 21.0314 197.468 21.0868 197.195 21.1981C196.922 21.3095 196.673 21.4744 196.464 21.6832C196.256 21.8921 196.091 22.1406 195.98 22.4141C195.868 22.6876 195.813 22.9807 195.817 23.2759H195.817Z" fill="white"/>
</g>
<defs>
<clipPath id="clip0_816_8744">
<rect width="229.872" height="76.839" fill="white" transform="translate(0.578125 0.164062)"/>
</clipPath>
</defs>
</svg>
