<svg width="259" height="78" viewBox="0 0 259 78" fill="none" xmlns="http://www.w3.org/2000/svg">
<g clip-path="url(#clip0_816_8746)">
<g clip-path="url(#clip1_816_8746)">
<path d="M248.043 76.6172H9.1213C3.86504 76.6172 -0.435547 72.3166 -0.435547 67.0603V9.71923C-0.435547 4.46296 3.86504 0.162375 9.1213 0.162375H248.043C253.299 0.162375 257.599 4.46296 257.599 9.71923V67.0603C257.599 72.3166 253.299 76.6172 248.043 76.6172Z" fill="#100F0D"/>
<path d="M248.043 0.162375H9.1213C3.86504 0.162375 -0.435547 4.46296 -0.435547 9.71923V67.0603C-0.435547 72.3166 3.86504 76.6172 9.1213 76.6172H248.043C253.299 76.6172 257.599 72.3166 257.599 67.0603V9.71923C257.599 4.46296 253.299 0.162375 248.043 0.162375ZM248.043 1.69071C252.469 1.69071 256.07 5.29249 256.07 9.71923V67.0603C256.07 71.4871 252.469 75.0888 248.043 75.0888H9.1213C4.69453 75.0888 1.0943 71.4871 1.0943 67.0603V9.71923C1.0943 5.29249 4.69453 1.69071 9.1213 1.69071H248.043Z" fill="#A2A2A1"/>
<path d="M39.1619 37.2893L18.8125 58.8878C18.8133 58.8923 18.8148 58.8961 18.8156 58.9005C19.4396 61.2457 21.5817 62.9727 24.124 62.9727C25.1403 62.9727 26.0944 62.6979 26.9127 62.2156L26.9777 62.1775L49.8835 48.96L39.1619 37.2893" fill="#EB3131"/>
<path d="M59.7489 33.6069L59.7295 33.5935L49.8404 27.8608L38.6992 37.7747L49.8792 48.9531L59.7161 43.2773C61.4407 42.3463 62.6114 40.5282 62.6114 38.4316C62.6114 36.3501 61.4564 34.541 59.7489 33.6069" fill="#F6B60B"/>
<path d="M18.8097 17.8937C18.6873 18.3448 18.623 18.8173 18.623 19.3079V57.4734C18.623 57.9631 18.6866 58.4372 18.8104 58.8867L39.8602 37.8408L18.8097 17.8937Z" fill="#5778C5"/>
<path d="M39.3108 38.3906L49.8435 27.8609L26.9637 14.5956C26.132 14.0975 25.1615 13.81 24.1228 13.81C21.5805 13.81 19.4356 15.54 18.8113 17.8881C18.8105 17.8904 18.8105 17.8919 18.8105 17.894L39.3108 38.3906Z" fill="#3BAD49"/>
</g>
<path d="M204.401 57.7009H207.967V33.8058H204.401V57.7009ZM236.526 42.4133L232.437 52.773H232.315L228.072 42.4133H224.23L230.593 56.8929L226.965 64.9471H230.686L240.492 42.4133H236.526ZM216.299 54.9868C215.129 54.9868 213.501 54.4029 213.501 52.9575C213.501 51.1132 215.531 50.4061 217.282 50.4061C218.851 50.4061 219.587 50.7443 220.541 51.2059C220.263 53.4189 218.358 54.9868 216.299 54.9868V54.9868ZM216.729 41.8906C214.147 41.8906 211.473 43.0284 210.366 45.5492L213.531 46.8708C214.208 45.5492 215.468 45.1184 216.79 45.1184C218.635 45.1184 220.51 46.2257 220.541 48.1931V48.4387C219.895 48.0698 218.513 47.5166 216.821 47.5166C213.409 47.5166 209.934 49.3914 209.934 52.8961C209.934 56.0934 212.732 58.1533 215.867 58.1533C218.266 58.1533 219.587 57.0774 220.418 55.8172H220.541V57.6613H223.983V48.4999C223.983 44.2582 220.818 41.8906 216.729 41.8906V41.8906ZM194.687 45.3221H189.614V37.1315H194.687C197.353 37.1315 198.867 39.3392 198.867 41.2267C198.867 43.0785 197.353 45.3221 194.687 45.3221ZM194.595 33.8058H186.049V57.7009H189.614V48.6478H194.595C198.548 48.6478 202.434 45.7859 202.434 41.2267C202.434 36.6678 198.548 33.8058 194.595 33.8058ZM147.993 54.9912C145.529 54.9912 143.466 52.9282 143.466 50.0948C143.466 47.2315 145.529 45.1371 147.993 45.1371C150.425 45.1371 152.335 47.2315 152.335 50.0948C152.335 52.9282 150.425 54.9912 147.993 54.9912V54.9912ZM152.088 43.7513H151.965C151.165 42.797 149.624 41.9347 147.684 41.9347C143.62 41.9347 139.894 45.5066 139.894 50.0948C139.894 54.6523 143.62 58.1936 147.684 58.1936C149.624 58.1936 151.165 57.3312 151.965 56.3464H152.088V57.5164C152.088 60.6271 150.425 62.2898 147.746 62.2898C145.56 62.2898 144.205 60.7188 143.65 59.395L140.54 60.6882C141.434 62.8437 143.805 65.4922 147.746 65.4922C151.934 65.4922 155.476 63.0282 155.476 57.0237V42.4275H152.088V43.7513ZM157.939 57.7009H161.511V33.8051H157.939V57.7009ZM166.777 49.8178C166.684 46.6766 169.209 45.0758 171.026 45.0758C172.444 45.0758 173.644 45.7836 174.043 46.8006L166.777 49.8178ZM177.862 47.1082C177.186 45.2908 175.121 41.9347 170.903 41.9347C166.715 41.9347 163.236 45.2296 163.236 50.0642C163.236 54.6218 166.684 58.1936 171.303 58.1936C175.03 58.1936 177.186 55.9148 178.078 54.591L175.307 52.743C174.384 54.0982 173.12 54.9912 171.303 54.9912C169.486 54.9912 168.193 54.1596 167.362 52.528L178.231 48.0318L177.862 47.1082ZM91.2595 44.4291V47.8779H99.5121C99.2657 49.8178 98.6191 51.2342 97.6335 52.2197C96.433 53.421 94.5544 54.7449 91.2595 54.7449C86.1784 54.7449 82.2063 50.6495 82.2063 45.5685C82.2063 40.4876 86.1784 36.3916 91.2595 36.3916C94.0003 36.3916 96.0014 37.4697 97.4797 38.8554L99.9123 36.423C97.8493 34.4517 95.1084 32.9428 91.2595 32.9428C84.2999 32.9428 78.4492 38.6091 78.4492 45.5685C78.4492 52.528 84.2999 58.1936 91.2595 58.1936C95.0166 58.1936 97.8494 56.9625 100.066 54.6523C102.345 52.3736 103.054 49.1712 103.054 46.5848C103.054 45.7836 102.992 45.0452 102.868 44.4291H91.2595ZM112.436 54.9912C109.972 54.9912 107.847 52.9588 107.847 50.0642C107.847 47.1388 109.972 45.1371 112.436 45.1371C114.899 45.1371 117.024 47.1388 117.024 50.0642C117.024 52.9588 114.899 54.9912 112.436 54.9912V54.9912ZM112.436 41.9347C107.94 41.9347 104.275 45.3527 104.275 50.0642C104.275 54.7449 107.94 58.1936 112.436 58.1936C116.931 58.1936 120.596 54.7449 120.596 50.0642C120.596 45.3527 116.931 41.9347 112.436 41.9347ZM130.237 54.9912C127.774 54.9912 125.649 52.9588 125.649 50.0642C125.649 47.1388 127.774 45.1371 130.237 45.1371C132.701 45.1371 134.826 47.1388 134.826 50.0642C134.826 52.9588 132.701 54.9912 130.237 54.9912ZM130.237 41.9347C125.741 41.9347 122.077 45.3527 122.077 50.0642C122.077 54.7449 125.741 58.1936 130.237 58.1936C134.733 58.1936 138.398 54.7449 138.398 50.0642C138.398 45.3527 134.733 41.9347 130.237 41.9347Z" fill="white"/>
</g>
<path d="M86.357 14.556C87.1055 14.5023 87.8565 14.6153 88.5559 14.887C89.2554 15.1587 89.8858 15.5823 90.4018 16.1271C90.9177 16.6719 91.3063 17.3245 91.5395 18.0377C91.7727 18.7509 91.8448 19.507 91.7504 20.2514C91.7504 23.9132 89.7713 26.0181 86.357 26.0181H82.2168V14.556H86.357ZM83.9971 24.3971H86.1582C86.693 24.4291 87.2282 24.3414 87.7248 24.1404C88.2215 23.9395 88.6671 23.6303 89.0292 23.2354C89.3912 22.8405 89.6607 22.3699 89.818 21.8577C89.9752 21.3455 90.0163 20.8048 89.9382 20.2747C90.0106 19.7468 89.9654 19.2093 89.8057 18.7009C89.6461 18.1925 89.3759 17.7257 89.0146 17.334C88.6534 16.9422 88.2099 16.6352 87.7161 16.435C87.2222 16.2348 86.6902 16.1462 86.1582 16.1758H83.9971V24.3971Z" fill="white"/>
<path d="M93.7634 21.6952C93.7091 21.1267 93.7741 20.5532 93.9544 20.0113C94.1346 19.4695 94.4261 18.9713 94.8102 18.5487C95.1943 18.1261 95.6625 17.7885 96.1847 17.5574C96.7069 17.3264 97.2716 17.207 97.8427 17.207C98.4137 17.207 98.9785 17.3264 99.5007 17.5574C100.023 17.7885 100.491 18.1261 100.875 18.5487C101.259 18.9713 101.551 19.4695 101.731 20.0113C101.911 20.5532 101.976 21.1267 101.922 21.6952C101.977 22.2642 101.913 22.8385 101.733 23.3813C101.554 23.924 101.262 24.4231 100.878 24.8465C100.494 25.2699 100.025 25.6083 99.5026 25.8398C98.9798 26.0713 98.4144 26.191 97.8427 26.191C97.271 26.191 96.7056 26.0713 96.1828 25.8398C95.6601 25.6083 95.1916 25.2699 94.8074 24.8465C94.4232 24.4231 94.1319 23.924 93.9521 23.3813C93.7723 22.8385 93.708 22.2642 93.7634 21.6952V21.6952ZM100.166 21.6952C100.166 19.8202 99.3237 18.7237 97.8455 18.7237C96.3616 18.7237 95.5269 19.8202 95.5269 21.6952C95.5269 23.5852 96.3617 24.6732 97.8455 24.6732C99.3238 24.6732 100.166 23.5777 100.166 21.6952H100.166Z" fill="white"/>
<path d="M112.767 26.0172H110.996L109.208 19.6465H109.073L107.293 26.0172H105.539L103.154 17.3672H104.886L106.435 23.9677H106.563L108.341 17.3672H109.979L111.757 23.9677H111.892L113.435 17.3672H115.142L112.767 26.0172Z" fill="white"/>
<path d="M117.145 17.3669H118.788V18.741H118.915C119.132 18.2475 119.497 17.8338 119.96 17.5575C120.422 17.2813 120.96 17.1563 121.497 17.1999C121.918 17.1683 122.34 17.2317 122.733 17.3856C123.126 17.5395 123.48 17.7798 123.767 18.0888C124.055 18.3977 124.269 18.7675 124.394 19.1705C124.52 19.5736 124.553 19.9996 124.491 20.4172V26.0168H122.784V20.8459C122.784 19.4558 122.18 18.7645 120.917 18.7645C120.631 18.7512 120.346 18.7998 120.081 18.9071C119.816 19.0143 119.577 19.1776 119.381 19.3858C119.184 19.594 119.036 19.8422 118.944 20.1133C118.853 20.3844 118.821 20.6721 118.852 20.9565V26.0169H117.145L117.145 17.3669Z" fill="white"/>
<path d="M127.211 13.9922H128.918V26.0189H127.211V13.9922Z" fill="white"/>
<path d="M131.291 21.6914C131.236 21.1229 131.301 20.5493 131.482 20.0075C131.662 19.4656 131.954 18.9674 132.338 18.5448C132.722 18.1222 133.19 17.7846 133.712 17.5535C134.235 17.3225 134.799 17.2031 135.37 17.2031C135.942 17.2031 136.506 17.3225 137.029 17.5535C137.551 17.7846 138.019 18.1222 138.403 18.5448C138.787 18.9674 139.079 19.4656 139.259 20.0075C139.439 20.5493 139.505 21.1229 139.45 21.6914C139.506 22.2605 139.441 22.8348 139.261 23.3775C139.082 23.9203 138.79 24.4193 138.406 24.8427C138.022 25.2661 137.553 25.6045 137.03 25.836C136.508 26.0675 135.942 26.1872 135.37 26.1872C134.799 26.1872 134.233 26.0675 133.711 25.836C133.188 25.6045 132.719 25.2661 132.335 24.8427C131.951 24.4193 131.659 23.9203 131.48 23.3775C131.3 22.8348 131.235 22.2605 131.291 21.6914V21.6914ZM137.693 21.6914C137.693 19.8164 136.851 18.7199 135.373 18.7199C133.889 18.7199 133.054 19.8164 133.054 21.6914C133.054 23.5815 133.889 24.6695 135.373 24.6695C136.851 24.6695 137.693 23.5739 137.693 21.6914H137.693Z" fill="white"/>
<path d="M141.248 23.5778C141.248 22.0207 142.407 21.1231 144.465 20.9955L146.808 20.8604V20.1138C146.808 19.2002 146.204 18.6843 145.037 18.6843C144.084 18.6843 143.424 19.0342 143.235 19.6458H141.582C141.756 18.16 143.154 17.207 145.116 17.207C147.285 17.207 148.508 18.2866 148.508 20.1138V26.024H146.865V24.8084H146.73C146.455 25.2444 146.07 25.5999 145.614 25.8385C145.158 26.0771 144.646 26.1903 144.131 26.1665C143.768 26.2043 143.401 26.1655 143.054 26.0528C142.707 25.94 142.387 25.7558 142.115 25.5119C141.844 25.268 141.626 24.9698 141.477 24.6367C141.327 24.3036 141.249 23.9428 141.248 23.5778V23.5778ZM146.808 22.8386V22.1155L144.696 22.2505C143.505 22.3302 142.965 22.7354 142.965 23.498C142.965 24.2765 143.64 24.7296 144.569 24.7296C144.841 24.7571 145.115 24.7296 145.377 24.6488C145.638 24.5679 145.88 24.4353 146.089 24.2589C146.298 24.0825 146.47 23.8658 146.593 23.6218C146.717 23.3778 146.79 23.1115 146.808 22.8386V22.8386Z" fill="white"/>
<path d="M150.754 21.6902C150.754 18.9569 152.159 17.2254 154.344 17.2254C154.885 17.2005 155.422 17.33 155.891 17.5987C156.361 17.8675 156.745 18.2643 156.997 18.743H157.125V13.9922H158.832V26.0189H157.196V24.6523H157.061C156.789 25.1277 156.392 25.5196 155.913 25.7857C155.434 26.0517 154.892 26.1816 154.345 26.1615C152.144 26.1616 150.754 24.43 150.754 21.6902ZM152.517 21.6902C152.517 23.5249 153.382 24.6289 154.829 24.6289C156.267 24.6289 157.157 23.5089 157.157 21.6977C157.157 19.8949 156.258 18.759 154.829 18.759C153.392 18.759 152.517 19.8705 152.517 21.6902H152.517Z" fill="white"/>
<path d="M165.892 21.6952C165.838 21.1267 165.903 20.5532 166.083 20.0113C166.264 19.4695 166.555 18.9713 166.939 18.5487C167.323 18.1261 167.791 17.7885 168.314 17.5574C168.836 17.3264 169.401 17.207 169.972 17.207C170.543 17.207 171.107 17.3264 171.63 17.5574C172.152 17.7885 172.62 18.1261 173.004 18.5487C173.388 18.9713 173.68 19.4695 173.86 20.0113C174.04 20.5532 174.105 21.1267 174.051 21.6952C174.106 22.2642 174.042 22.8385 173.862 23.3813C173.682 23.924 173.391 24.4231 173.007 24.8465C172.623 25.2699 172.154 25.6083 171.631 25.8398C171.109 26.0713 170.543 26.191 169.972 26.191C169.4 26.191 168.834 26.0713 168.312 25.8398C167.789 25.6083 167.32 25.2699 166.936 24.8465C166.552 24.4231 166.261 23.924 166.081 23.3813C165.901 22.8385 165.837 22.2642 165.892 21.6952V21.6952ZM172.295 21.6952C172.295 19.8202 171.453 18.7237 169.974 18.7237C168.491 18.7237 167.656 19.8202 167.656 21.6952C167.656 23.5852 168.491 24.6732 169.974 24.6732C171.453 24.6732 172.295 23.5777 172.295 21.6952Z" fill="white"/>
<path d="M176.342 17.3669H177.985V18.741H178.113C178.329 18.2475 178.694 17.8338 179.157 17.5575C179.62 17.2813 180.157 17.1563 180.694 17.1999C181.115 17.1683 181.537 17.2317 181.931 17.3856C182.324 17.5395 182.677 17.7798 182.964 18.0888C183.252 18.3977 183.466 18.7675 183.592 19.1705C183.717 19.5736 183.75 19.9996 183.688 20.4172V26.0168H181.981V20.8459C181.981 19.4558 181.377 18.7645 180.114 18.7645C179.829 18.7512 179.543 18.7998 179.278 18.9071C179.013 19.0143 178.774 19.1776 178.578 19.3858C178.382 19.594 178.233 19.8422 178.142 20.1133C178.05 20.3844 178.019 20.6721 178.049 20.9565V26.0169H176.342V17.3669Z" fill="white"/>
<path d="M193.334 15.2148V17.4078H195.208V18.8458H193.334V23.2936C193.334 24.1997 193.707 24.5965 194.557 24.5965C194.775 24.5958 194.992 24.5826 195.208 24.5571V25.979C194.902 26.0339 194.591 26.0631 194.28 26.0663C192.381 26.0663 191.625 25.3984 191.625 23.7307V18.8457H190.252V17.4078H191.625V15.2148H193.334Z" fill="white"/>
<path d="M197.539 13.9922H199.231V18.759H199.366C199.593 18.2608 199.968 17.8448 200.44 17.5675C200.912 17.2902 201.458 17.1652 202.004 17.2095C202.422 17.1867 202.841 17.2566 203.23 17.4142C203.618 17.5718 203.967 17.8132 204.252 18.1212C204.536 18.4292 204.749 18.7962 204.876 19.196C205.002 19.5958 205.039 20.0186 204.983 20.4342V26.0189H203.274V20.8554C203.274 19.4737 202.63 18.774 201.424 18.774C201.131 18.7499 200.836 18.7902 200.56 18.8922C200.283 18.9941 200.033 19.1551 199.825 19.364C199.618 19.5729 199.459 19.8246 199.359 20.1014C199.258 20.3783 199.22 20.6737 199.246 20.967V26.0189H197.539L197.539 13.9922Z" fill="white"/>
<path d="M214.937 23.6847C214.705 24.4752 214.203 25.1591 213.517 25.6166C212.832 26.074 212.008 26.276 211.189 26.1872C210.619 26.2022 210.053 26.0931 209.529 25.8673C209.006 25.6415 208.538 25.3046 208.158 24.8798C207.777 24.455 207.494 23.9525 207.328 23.4073C207.161 22.8621 207.115 22.2872 207.193 21.7224C207.117 21.156 207.164 20.5798 207.33 20.033C207.496 19.4861 207.778 18.9813 208.156 18.5528C208.534 18.1243 209 17.782 209.522 17.5492C210.044 17.3164 210.61 17.1984 211.181 17.2033C213.588 17.2033 215.04 18.8476 215.04 21.5639V22.1596H208.932V22.2552C208.905 22.5727 208.945 22.8922 209.049 23.1933C209.153 23.4944 209.319 23.7705 209.536 24.0038C209.753 24.2371 210.016 24.4225 210.309 24.5481C210.602 24.6738 210.917 24.7368 211.236 24.7333C211.644 24.7823 212.058 24.7088 212.424 24.522C212.791 24.3353 213.093 24.0438 213.294 23.6846L214.937 23.6847ZM208.932 20.897H213.301C213.323 20.6067 213.283 20.3151 213.185 20.0409C213.087 19.7668 212.933 19.5161 212.733 19.3051C212.532 19.0941 212.29 18.9273 212.021 18.8156C211.752 18.7038 211.463 18.6495 211.172 18.6562C210.877 18.6525 210.584 18.7079 210.31 18.8192C210.037 18.9305 209.788 19.0955 209.58 19.3043C209.371 19.5132 209.206 19.7617 209.095 20.0352C208.984 20.3087 208.928 20.6018 208.932 20.897H208.932Z" fill="white"/>
<defs>
<clipPath id="clip0_816_8746">
<rect width="258.041" height="76.839" fill="white" transform="translate(0 0.164062)"/>
</clipPath>
<clipPath id="clip1_816_8746">
<rect width="258.615" height="76.839" fill="white" transform="translate(-0.435547 0.164062)"/>
</clipPath>
</defs>
</svg>
