<svg width="24" height="23" viewBox="0 0 24 23" fill="none" xmlns="http://www.w3.org/2000/svg">
<g clip-path="url(#clip0_15_1394)">
<path d="M17.5446 23.0002H7.02871C6.85863 23.0002 6.71382 22.8763 6.68758 22.7082C6.66134 22.5402 6.7614 22.378 6.92341 22.3261L11.9413 20.7185V9.96018C11.9413 9.94768 11.942 9.93539 11.9433 9.92316H11.3696C9.35855 9.92316 7.72251 8.28712 7.72251 6.2761V6.0853C5.78082 5.27778 4.49268 3.36841 4.49268 1.25913V0.48834C4.49268 0.29768 4.64722 0.143066 4.83795 0.143066H19.7353C19.926 0.143066 20.0806 0.29768 20.0806 0.48834V1.25913C20.0806 3.36841 18.7924 5.27784 16.8508 6.0853V6.2761C16.8508 8.28712 15.2147 9.92316 13.2037 9.92316H12.63C12.6313 9.93532 12.6319 9.94761 12.6319 9.96018V20.7185L17.6499 22.3261C17.8119 22.378 17.912 22.5402 17.8857 22.7082C17.8594 22.8763 17.7146 23.0002 17.5446 23.0002ZM9.23812 22.3097H15.3351L12.2866 21.333L9.23812 22.3097ZM5.94946 3.77134C6.47773 4.56106 7.25197 5.18655 8.18531 5.52458C8.32197 5.57409 8.41306 5.70384 8.41306 5.8492V6.27617C8.41306 7.90642 9.73932 9.23268 11.3696 9.23268H13.2037C14.8339 9.23268 16.1602 7.90635 16.1602 6.27617V5.8492C16.1602 5.70384 16.2512 5.57409 16.3879 5.52458C17.3213 5.18655 18.0955 4.56106 18.6238 3.77134H11.3674C11.3142 3.86947 11.2465 3.96042 11.1654 4.04142L10.0988 5.10804C9.87778 5.32908 9.58291 5.45083 9.26871 5.45083C8.95451 5.45083 8.65972 5.32908 8.43861 5.10797L7.37212 4.04142C7.29016 3.95945 7.2229 3.86837 7.17028 3.77134H5.94946ZM8.07862 3.77134L8.92703 4.61975H8.9271C9.0177 4.71035 9.13903 4.76028 9.26878 4.76028C9.39854 4.76028 9.51994 4.71035 9.6106 4.61968L10.459 3.77128L8.07862 3.77134ZM11.5013 3.0808H19.0039C19.2534 2.51703 19.39 1.89858 19.39 1.25913V0.833615H5.18322V1.25913C5.18322 1.89872 5.31975 2.51689 5.56931 3.0808H7.03603C7.06442 2.82509 7.17642 2.5769 7.37212 2.3812L8.43874 1.31458C8.65972 1.09354 8.95458 0.971793 9.26878 0.971793C9.58298 0.971793 9.87778 1.09354 10.0989 1.31458L11.1655 2.3812C11.3557 2.57138 11.4724 2.81604 11.5013 3.0808ZM7.7368 3.0808H10.8008C10.7792 3.00332 10.738 2.93033 10.6772 2.86949L9.6106 1.80287C9.51994 1.7122 9.39854 1.66227 9.26878 1.66227C9.13903 1.66227 9.01763 1.7122 8.9271 1.8028L7.86041 2.86949C7.79957 2.93026 7.75842 3.00332 7.7368 3.0808ZM14.2674 8.22269C14.1577 8.22269 14.0464 8.20722 13.936 8.17469L12.4891 7.74814C11.8682 7.56508 11.512 6.91106 11.695 6.29019L12.1216 4.84328C12.3046 4.22241 12.9585 3.86609 13.5795 4.04915L15.0264 4.47564C15.6473 4.6587 16.0035 5.31272 15.8205 5.93359L15.3939 7.3805C15.2435 7.89109 14.7745 8.22269 14.2674 8.22269ZM12.6844 7.08584L14.1313 7.51239C14.2543 7.54871 14.3848 7.53442 14.4987 7.47234C14.6126 7.41033 14.6953 7.30833 14.7316 7.18542L15.1581 5.73851C15.2335 5.48287 15.0868 5.21355 14.8311 5.13822L13.3842 4.71173C13.1286 4.63639 12.8592 4.78307 12.7839 5.03871L12.3574 6.48561C12.282 6.74112 12.4287 7.01043 12.6844 7.08584Z" fill="white"/>
</g>
<defs>
<clipPath id="clip0_15_1394">
<rect width="22.8571" height="22.8571" fill="white" transform="translate(0.857422 0.143066)"/>
</clipPath>
</defs>
</svg>
