<svg width="28" height="17" viewBox="0 0 28 17" fill="none" xmlns="http://www.w3.org/2000/svg">
<path d="M22.9257 6.77533C22.852 6.77533 22.7786 6.77752 22.7056 6.78092C22.6962 6.78138 22.6869 6.78165 22.6775 6.78212C22.6091 6.78578 22.5409 6.7911 22.4733 6.79769C22.46 6.79902 22.4467 6.80022 22.4333 6.80168C22.3681 6.8086 22.303 6.81685 22.2386 6.8265C22.2236 6.8287 22.2088 6.83109 22.1939 6.83342C22.1304 6.84354 22.0672 6.85465 22.0045 6.86736C21.99 6.87022 21.9757 6.87355 21.9613 6.87661C21.9043 6.88872 21.8474 6.90176 21.7911 6.916C21.7743 6.92019 21.7575 6.92452 21.7408 6.92898C21.6876 6.94302 21.6349 6.95812 21.5825 6.97403C21.5638 6.97968 21.5451 6.98514 21.5264 6.99099C21.4723 7.0081 21.4189 7.02646 21.3657 7.04549C21.3438 7.05334 21.3219 7.0612 21.3002 7.06938C21.2493 7.08848 21.1988 7.10838 21.1488 7.12914C21.126 7.13865 21.1033 7.14837 21.0808 7.15822C21.0317 7.17958 20.9826 7.20147 20.9344 7.22456L17.356 1.25353C17.0563 0.771631 16.1854 -0.00944943 14.9129 0.194704C14.8055 0.0755924 14.6506 0 14.4786 0H13.2806C12.9583 0 12.6945 0.263776 12.6945 0.58611V0.730374C12.6945 1.05271 12.9583 1.31642 13.2806 1.31642H14.4786C14.6582 1.31642 14.8194 1.23444 14.9272 1.10608C15.9845 0.860465 16.5238 1.62165 16.5929 1.72759L17.6871 3.55332H8.64891L7.91408 2.32727H8.85459C9.21439 2.32727 9.50891 2.03275 9.50891 1.67289V1.43373C9.50891 1.0738 9.21439 0.779349 8.85459 0.779349H5.54229C5.18236 0.779349 4.88791 1.07387 4.88791 1.43373V1.67289C4.88791 2.03282 5.18236 2.32727 5.54229 2.32727H6.86676L7.88214 4.02152L6.40435 7.06539H6.40428C6.36123 7.04935 6.31738 7.03485 6.27379 7.02001C6.24951 7.01176 6.22542 7.00317 6.201 6.99532C6.161 6.98254 6.12061 6.9709 6.08015 6.95919C6.05108 6.95074 6.022 6.94215 5.99265 6.93423C5.95439 6.92392 5.91586 6.91447 5.8772 6.90515C5.84459 6.8973 5.81185 6.88965 5.77891 6.8824C5.74218 6.87441 5.70545 6.86689 5.66845 6.85977C5.63219 6.85278 5.59586 6.8464 5.55932 6.84027C5.52452 6.83442 5.48972 6.8287 5.45465 6.82364C5.41426 6.81778 5.37354 6.81286 5.33274 6.80813C5.3008 6.80434 5.26886 6.80035 5.23666 6.79722C5.18921 6.7927 5.14143 6.78944 5.09359 6.78631C5.06724 6.78464 5.04109 6.78225 5.0146 6.78098C4.93974 6.77732 4.86462 6.77526 4.78889 6.77526C2.22719 6.77526 0.143066 8.85945 0.143066 11.4212C0.143066 13.9829 2.22719 16.0669 4.78889 16.0669C4.86668 16.0669 4.94394 16.0648 5.02079 16.061C5.04654 16.0597 5.07203 16.0572 5.09772 16.0555C5.14855 16.0521 5.19939 16.0489 5.24977 16.0439C5.28018 16.0408 5.31019 16.0366 5.3404 16.033C5.38558 16.0276 5.43076 16.0225 5.47548 16.0158C5.50762 16.011 5.53936 16.0051 5.57123 15.9997C5.61356 15.9925 5.65581 15.9853 5.6978 15.977C5.73054 15.9704 5.76294 15.963 5.79555 15.9558C5.83588 15.9468 5.87633 15.9378 5.91626 15.9278C5.94926 15.9196 5.98194 15.9105 6.01468 15.9015C6.05354 15.8908 6.09233 15.8801 6.13079 15.8685C6.16373 15.8585 6.19641 15.8479 6.22914 15.8372C6.26661 15.8249 6.30387 15.8124 6.34094 15.7993C6.37367 15.7876 6.40628 15.7755 6.43875 15.7631C6.47489 15.7494 6.51075 15.7352 6.54642 15.7206C6.57889 15.7072 6.61123 15.6936 6.64331 15.6796C6.67804 15.6643 6.71264 15.6486 6.74705 15.6326C6.77912 15.6175 6.81113 15.6024 6.8428 15.5867C6.87627 15.5702 6.90928 15.5531 6.94228 15.5357C6.97402 15.519 7.0057 15.5022 7.03704 15.4849C7.06891 15.4671 7.10039 15.4487 7.13186 15.4303C7.16327 15.4119 7.19468 15.3934 7.22562 15.3743C7.2559 15.3556 7.28558 15.3361 7.31546 15.3167C7.3466 15.2964 7.37781 15.2764 7.40835 15.2554C7.43683 15.2359 7.46458 15.2156 7.49253 15.1955C7.52354 15.1733 7.55468 15.1513 7.58509 15.1283C7.61104 15.1087 7.63626 15.0882 7.66168 15.0681C7.69309 15.0433 7.72469 15.0189 7.75537 14.9934C7.777 14.9753 7.79796 14.9564 7.81932 14.938C7.85272 14.9091 7.88653 14.8806 7.91913 14.8507C7.92299 14.8472 7.92659 14.8435 7.93045 14.8399C8.02673 14.7514 8.11923 14.6589 8.2078 14.5626C8.21059 14.5595 8.21365 14.5566 8.21651 14.5535C8.25118 14.5155 8.28459 14.4764 8.31806 14.4373C8.3313 14.4218 8.34501 14.4067 8.35812 14.3911C8.38893 14.3541 8.41847 14.3162 8.44822 14.2782C8.46285 14.2596 8.47783 14.2412 8.4922 14.2223C8.52055 14.1849 8.54776 14.1467 8.57498 14.1084C8.58942 14.0881 8.60413 14.0681 8.61823 14.0475C8.64458 14.0092 8.66994 13.9702 8.69509 13.9311C8.70893 13.9097 8.72284 13.8885 8.73621 13.8669C8.7607 13.8275 8.78432 13.7876 8.80761 13.7474C8.82046 13.7253 8.83343 13.7032 8.84594 13.6808C8.86863 13.6402 8.89046 13.5991 8.91195 13.5578C8.92373 13.5351 8.93551 13.5124 8.94689 13.4896C8.96778 13.4476 8.98801 13.4054 9.00771 13.3628C9.01829 13.3398 9.0288 13.3168 9.03912 13.2935C9.05821 13.2502 9.07671 13.2066 9.09461 13.1626C9.104 13.1395 9.11305 13.1163 9.12203 13.093C9.13946 13.0482 9.1563 13.0031 9.17227 12.9576C9.18032 12.9347 9.18791 12.9117 9.19563 12.8887C9.2112 12.8421 9.22637 12.7953 9.24047 12.7481C9.24713 12.7259 9.25319 12.7034 9.25957 12.681C9.27328 12.6324 9.28666 12.5836 9.29883 12.5343C9.30402 12.5133 9.30855 12.4921 9.31354 12.471C9.32538 12.4198 9.33703 12.3685 9.34714 12.3166C9.3508 12.298 9.35386 12.2791 9.35719 12.2603C9.36724 12.2056 9.37702 12.1507 9.38507 12.0953C9.38707 12.0815 9.38853 12.0675 9.3904 12.0536C9.39871 11.9928 9.40657 11.9319 9.41249 11.8704V11.8703H10.799C11.056 12.7409 11.8622 13.3783 12.815 13.3783C13.0295 13.3783 13.2366 13.3458 13.4318 13.2857L13.9672 14.211C13.8367 14.2895 13.7486 14.4312 13.7486 14.5946C13.7486 14.8428 13.9496 15.0438 14.1977 15.0438H15.5549C15.803 15.0438 16.004 14.8428 16.004 14.5946C16.004 14.3465 15.803 14.1455 15.5549 14.1455H14.9673L14.2138 12.8434C14.6449 12.4583 14.9167 11.8987 14.9167 11.2766C14.9167 10.7924 14.7518 10.3462 14.4755 9.99048L18.4352 4.8016L20.1646 7.6875C20.1458 7.70154 20.1272 7.71604 20.1086 7.73035C20.0759 7.75544 20.0434 7.78092 20.0113 7.80688C19.9929 7.82178 19.9742 7.83642 19.9561 7.85153C19.9143 7.8864 19.8733 7.92219 19.8328 7.95839C19.8139 7.9753 19.7951 7.9924 19.7764 8.00963C19.7362 8.04676 19.6965 8.08436 19.6577 8.12282C19.6416 8.13879 19.6258 8.15516 19.6099 8.1714C19.5796 8.20241 19.5496 8.23381 19.5202 8.26556C19.5055 8.28126 19.4907 8.29683 19.4763 8.31274C19.4388 8.35439 19.4022 8.39698 19.3662 8.4399C19.3512 8.4578 19.3364 8.47563 19.3217 8.4938C19.2859 8.53765 19.2509 8.5821 19.2166 8.62735C19.2044 8.64352 19.1926 8.66002 19.1805 8.67639C19.152 8.71519 19.124 8.75445 19.0967 8.79417C19.0869 8.80855 19.0767 8.82265 19.0671 8.83709C19.0342 8.886 19.0024 8.93584 18.9714 8.98608C18.9607 9.00345 18.9501 9.02075 18.9396 9.03812C18.909 9.08909 18.8792 9.14053 18.8506 9.1927C18.8422 9.20794 18.8342 9.22331 18.826 9.23861C18.8004 9.28659 18.7755 9.3349 18.7516 9.38387C18.7461 9.39499 18.7404 9.40597 18.735 9.41715C18.708 9.47344 18.6824 9.53054 18.6576 9.58803C18.6507 9.60387 18.6439 9.61984 18.6372 9.63581C18.6132 9.69337 18.5901 9.75153 18.5683 9.81028C18.5631 9.82412 18.5583 9.8381 18.5533 9.852C18.5327 9.90916 18.5131 9.96679 18.4947 10.0249C18.4924 10.032 18.4899 10.039 18.4877 10.046C18.4681 10.1091 18.4503 10.1728 18.4334 10.2369C18.4296 10.2512 18.4259 10.2654 18.4222 10.2797C18.4062 10.3431 18.3913 10.4068 18.3779 10.4712C18.3752 10.4842 18.3728 10.4973 18.3702 10.5103C18.3571 10.5755 18.3451 10.6412 18.3349 10.7074C18.3344 10.7105 18.3338 10.7135 18.3334 10.7165C18.3229 10.7849 18.3145 10.8539 18.307 10.9233C18.3056 10.9366 18.3041 10.9498 18.3028 10.9632C18.2961 11.0307 18.2909 11.0986 18.2872 11.167C18.2866 11.18 18.286 11.193 18.2855 11.206C18.2822 11.2774 18.2801 11.349 18.2801 11.4212C18.2801 13.9829 20.3641 16.0669 22.9258 16.0669C25.4875 16.0669 27.5716 13.9829 27.5716 11.4212C27.5716 8.85945 25.4875 6.77533 22.9257 6.77533ZM7.21185 7.45906L8.43378 4.94227L11.336 9.785C11.0198 10.0984 10.8026 10.5112 10.7355 10.9721H9.41249L9.41242 10.972C9.40983 10.9449 9.4065 10.9181 9.40344 10.8912C9.39891 10.851 9.39372 10.811 9.38813 10.771C9.38361 10.7388 9.37895 10.7064 9.37369 10.6743C9.36591 10.6262 9.35732 10.5784 9.34801 10.5307C9.34248 10.5025 9.33683 10.4743 9.33077 10.4462C9.31946 10.3933 9.30735 10.3407 9.29424 10.2885C9.28759 10.2619 9.28027 10.2356 9.27315 10.2092C9.26283 10.1711 9.25205 10.133 9.24074 10.0953C9.23089 10.0622 9.22078 10.0292 9.2102 9.9964C9.19636 9.95375 9.18198 9.91136 9.16708 9.86924C9.1577 9.84302 9.14838 9.81694 9.1386 9.79099C9.11977 9.74081 9.10014 9.6911 9.07964 9.6418C9.06939 9.61717 9.05868 9.59282 9.0479 9.56833C9.0316 9.53093 9.01483 9.49387 8.99753 9.45701C8.98322 9.42653 8.96865 9.39619 8.95381 9.36611C8.93445 9.32698 8.91448 9.28819 8.89412 9.24966C8.88168 9.22624 8.8693 9.20295 8.85652 9.17986C8.8305 9.13281 8.80375 9.0863 8.77621 9.04025C8.76296 9.01822 8.74939 8.9964 8.73581 8.97457C8.71292 8.93777 8.68957 8.90137 8.66568 8.86531C8.64831 8.83902 8.63074 8.813 8.61284 8.78712C8.58809 8.75125 8.5628 8.71578 8.53698 8.68058C8.52214 8.66035 8.50751 8.64019 8.49233 8.62023C8.45959 8.57704 8.42612 8.53452 8.39192 8.49247C8.37608 8.4731 8.36005 8.45401 8.34388 8.43484C8.31407 8.39937 8.28372 8.3643 8.25285 8.32977C8.23348 8.30808 8.21379 8.28665 8.19396 8.26522C8.16448 8.23335 8.1344 8.20188 8.10392 8.1708C8.08709 8.15363 8.07045 8.13646 8.05342 8.11956C8.01456 8.08123 7.97503 8.04357 7.9349 8.00664C7.91674 7.98987 7.89837 7.97337 7.87994 7.95686C7.84248 7.92346 7.80468 7.89052 7.76622 7.85831C7.74619 7.84154 7.72589 7.82511 7.70553 7.80867C7.67179 7.78132 7.63759 7.75451 7.60312 7.72809C7.58469 7.71398 7.56632 7.69974 7.54762 7.6859C7.50344 7.65316 7.45846 7.62135 7.41314 7.59021C7.39285 7.57631 7.37248 7.56253 7.35199 7.54896C7.30581 7.51828 7.25916 7.48814 7.21185 7.45906ZM12.8756 10.6063L12.571 10.0981C12.6499 10.0818 12.7314 10.0732 12.815 10.0732C12.9595 10.0732 13.0975 10.1001 13.2261 10.147L12.8756 10.6063ZM12.0475 10.9721H11.6521C11.6877 10.8364 11.7453 10.7097 11.8227 10.597L12.0475 10.9721ZM6.81692 8.27248C7.21631 8.5306 7.56366 8.86251 7.83941 9.24886C7.84028 9.25006 7.84108 9.25112 7.84188 9.25232C7.88074 9.30682 7.91814 9.36238 7.9542 9.41901C7.95433 9.41941 7.9546 9.41974 7.95487 9.42007C8.17333 9.76457 8.33709 10.1469 8.43404 10.555C8.43418 10.5555 8.43431 10.556 8.43444 10.5565C8.45021 10.6232 8.46419 10.6905 8.47643 10.7585C8.47676 10.7606 8.47723 10.7628 8.47763 10.765C8.48974 10.8332 8.49999 10.9021 8.50837 10.9714C8.50837 10.9717 8.50844 10.9719 8.50844 10.9722H5.50616L6.81692 8.27248ZM1.04126 11.4212C1.04126 9.3548 2.7224 7.67366 4.78876 7.67366C4.84798 7.67366 4.90674 7.67539 4.9653 7.67812C4.98712 7.67918 5.00881 7.68091 5.03057 7.68231C5.06617 7.68464 5.10171 7.68716 5.13711 7.69049C5.16492 7.69309 5.19261 7.69608 5.22015 7.69934C5.2477 7.70247 5.27499 7.70606 5.30233 7.70979C5.33467 7.71425 5.36701 7.71891 5.39909 7.72423C5.41752 7.72722 5.43589 7.73082 5.45419 7.73408C5.6443 7.76861 5.82982 7.81692 6.00902 7.87881C6.00915 7.87881 6.00915 7.87888 6.00929 7.87888L4.38464 11.2251C4.3171 11.3643 4.32582 11.5285 4.408 11.6596C4.49018 11.7907 4.63398 11.8704 4.78876 11.8704H8.5083C8.5083 11.8708 8.50824 11.8711 8.50817 11.8715C8.44562 12.3911 8.27634 12.8783 8.02301 13.3106C8.02181 13.3126 8.02068 13.3148 8.01941 13.3168C7.99353 13.3608 7.96664 13.4041 7.9391 13.4468C7.93537 13.4524 7.93191 13.4582 7.92818 13.4638C7.9019 13.504 7.87482 13.5437 7.847 13.5828C7.84154 13.5906 7.83602 13.5983 7.8305 13.6061C7.80355 13.6436 7.77593 13.6803 7.74765 13.7167C7.74073 13.7257 7.73375 13.7345 7.72676 13.7433C7.69894 13.7784 7.67053 13.8132 7.64152 13.8473C7.63353 13.8568 7.62541 13.8659 7.61736 13.8753C7.58842 13.9085 7.55907 13.9415 7.52906 13.9737C7.52034 13.9831 7.51143 13.9922 7.50264 14.0014C7.47243 14.0333 7.44189 14.0648 7.41048 14.0955C7.4017 14.1041 7.39271 14.1124 7.38393 14.1209C7.35172 14.1519 7.31925 14.1826 7.28604 14.2124C7.27886 14.2188 7.27134 14.2249 7.26415 14.2313C7.1149 14.363 6.95499 14.4828 6.78604 14.5898C6.77207 14.5986 6.75836 14.6079 6.74425 14.6165C6.71497 14.6346 6.68496 14.6515 6.65515 14.6688C6.63432 14.6808 6.6137 14.6931 6.59267 14.7047C6.56499 14.72 6.53664 14.7345 6.50849 14.7491C6.4846 14.7615 6.46085 14.774 6.43669 14.786C6.40954 14.7993 6.38206 14.8119 6.35458 14.8246C6.32863 14.8366 6.30267 14.8486 6.27639 14.86C6.24957 14.8717 6.22236 14.8828 6.19514 14.8938C6.16759 14.9051 6.13998 14.9161 6.11216 14.9266C6.08534 14.9367 6.05826 14.9465 6.03111 14.9561C6.00217 14.9662 5.97315 14.9761 5.94394 14.9857C5.91719 14.9944 5.89024 15.0028 5.86322 15.0109C5.83295 15.02 5.8024 15.0286 5.7718 15.037C5.74524 15.0441 5.71856 15.0513 5.69174 15.058C5.65994 15.0658 5.628 15.0731 5.59592 15.0801C5.56964 15.0859 5.54335 15.0919 5.51687 15.097C5.4834 15.1037 5.44973 15.1095 5.41592 15.1151C5.39024 15.1194 5.36469 15.1241 5.33887 15.1279C5.30307 15.1332 5.26687 15.1374 5.23073 15.1416C5.20651 15.1445 5.18236 15.1478 5.158 15.1502C5.11755 15.1542 5.07669 15.1569 5.0359 15.1596C5.0154 15.1609 4.99517 15.1629 4.97454 15.1639C4.91299 15.1669 4.85111 15.1686 4.78876 15.1686C2.7224 15.1687 1.04126 13.4876 1.04126 11.4212ZM12.815 12.48C12.3673 12.48 11.9767 12.2339 11.7694 11.8704H12.6127L12.96 12.4705C12.9123 12.4763 12.8641 12.48 12.815 12.48ZM14.0183 11.2766C14.0183 11.5648 13.9164 11.8293 13.7469 12.0367L13.3877 11.416L13.8956 10.7505C13.9734 10.9097 14.0183 11.0878 14.0183 11.2766ZM13.7858 9.41349C13.4952 9.26137 13.165 9.17486 12.815 9.17486C12.5618 9.17486 12.319 9.21985 12.094 9.30223L9.18717 4.45178H17.5721L13.7858 9.41349ZM22.9257 15.1687C20.8594 15.1687 19.1783 13.4876 19.1783 11.4213C19.1783 11.3509 19.1807 11.2811 19.1845 11.2117C19.1858 11.1895 19.188 11.1675 19.1896 11.1453C19.1931 11.098 19.1969 11.0508 19.2021 11.004C19.2049 10.9788 19.2084 10.9538 19.2117 10.9288C19.2175 10.8849 19.2239 10.8412 19.2312 10.7978C19.2353 10.7729 19.2398 10.7481 19.2445 10.7235C19.2528 10.6791 19.2622 10.6351 19.2721 10.5913C19.2771 10.569 19.2821 10.5466 19.2875 10.5244C19.2998 10.4752 19.3131 10.4263 19.3272 10.3779C19.3318 10.3621 19.3359 10.3462 19.3407 10.3305C19.3809 10.1986 19.4281 10.0695 19.4822 9.9441C19.4847 9.93851 19.4873 9.93305 19.4897 9.92746C19.5144 9.87097 19.5404 9.81514 19.5678 9.76011C19.5733 9.7492 19.579 9.73848 19.5845 9.72764C19.6101 9.67733 19.6367 9.62769 19.6644 9.57878C19.6705 9.56807 19.6768 9.55742 19.6829 9.54671C19.7122 9.49627 19.7425 9.44656 19.7741 9.39772C19.7788 9.3904 19.7835 9.38294 19.7883 9.37569C19.978 9.08596 20.2064 8.82392 20.4665 8.59721C20.4673 8.59654 20.4681 8.59581 20.4688 8.59521C20.521 8.54976 20.5745 8.50571 20.6292 8.46319L22.5404 11.6523C22.6246 11.7927 22.7734 11.8706 22.9261 11.8706C23.0047 11.8706 23.0843 11.85 23.1566 11.8067C23.3693 11.6791 23.4385 11.4033 23.311 11.1905L21.3991 8.00025L21.3992 8.00018C21.4573 7.97416 21.5161 7.94961 21.5756 7.92652C21.5761 7.92639 21.5764 7.92619 21.5768 7.92605C21.6351 7.90343 21.6942 7.88234 21.7537 7.86257C21.7559 7.86184 21.7581 7.86111 21.7603 7.86038C21.8173 7.84161 21.875 7.82438 21.9333 7.80827C21.9383 7.80688 21.9432 7.80535 21.9483 7.80401C22.0032 7.78911 22.0587 7.77573 22.1146 7.76329C22.123 7.76143 22.1313 7.75923 22.1397 7.7575C22.192 7.74626 22.245 7.73654 22.2981 7.72749C22.31 7.72549 22.3217 7.72303 22.3337 7.7211C22.3836 7.71312 22.434 7.70673 22.4845 7.70074C22.4997 7.69894 22.5146 7.69655 22.5299 7.69495C22.5794 7.68969 22.6293 7.68617 22.6793 7.68284C22.6954 7.68178 22.7112 7.68005 22.7273 7.67918C22.7931 7.67572 22.8592 7.67379 22.9258 7.67379C24.9922 7.67379 26.6733 9.35493 26.6733 11.4214C26.6733 13.4876 24.9922 15.1687 22.9257 15.1687Z" fill="black"/>
</svg>
