<svg width="53" height="29" viewBox="0 0 53 29" fill="none" xmlns="http://www.w3.org/2000/svg">
<path d="M35.1855 8.82894C35.1901 6.49132 34.2662 4.24727 32.6159 2.59151C30.9659 0.935317 28.7252 0.00335109 26.3877 9.16405e-06C24.0501 -0.00335971 21.8069 0.92224 20.1519 2.57383C18.4973 4.22496 17.5663 6.4661 17.5646 8.80372C17.5629 11.1418 18.4906 13.3841 20.143 15.0378C21.7955 16.6911 24.0375 17.6205 26.3751 17.6205C28.7085 17.6205 30.9466 16.6949 32.5983 15.0467C34.2498 13.3984 35.1805 11.1624 35.1856 8.82894H35.1855ZM21.0922 8.82894C21.0922 7.42792 21.649 6.08458 22.6395 5.09375C23.6303 4.1033 24.9736 3.54655 26.3746 3.54655C27.7757 3.54655 29.119 4.10326 30.1098 5.09375C31.1003 6.08462 31.657 7.42792 31.657 8.82894C31.657 10.23 31.1003 11.5733 30.1098 12.5641C29.119 13.5546 27.7757 14.1113 26.3746 14.1113C24.9736 14.1113 23.6303 13.5546 22.6395 12.5641C21.649 11.5733 21.0922 10.23 21.0922 8.82894Z" fill="white"/>
<path d="M12.8291 27.9588C13.2317 28.1912 13.7105 28.2544 14.1599 28.134C14.6092 28.0139 14.992 27.72 15.2248 27.3174C16.7889 24.6236 19.6566 22.9531 22.7711 22.9219H29.8082C32.922 22.9569 35.7876 24.6265 37.3545 27.3174C37.5895 27.7225 37.9761 28.0182 38.4288 28.1382C38.8819 28.2586 39.3641 28.1942 39.7692 27.9588C40.1743 27.7238 40.4699 27.3372 40.59 26.8841C40.7104 26.4314 40.646 25.9492 40.4106 25.5441C38.1977 21.7418 34.1323 19.4001 29.7325 19.3938H22.8465C18.4433 19.4039 14.3772 21.7533 12.1688 25.5631C11.9376 25.9682 11.8774 26.4482 12.0016 26.898C12.1254 27.3473 12.4232 27.7293 12.8291 27.9588H12.8291Z" fill="white"/>
<path d="M51.0327 12.3574C51.0327 10.4911 50.2911 8.70088 48.9714 7.38157C47.6516 6.06184 45.8619 5.32025 43.9956 5.32025C42.1293 5.32025 40.3395 6.06182 39.0198 7.38157C37.7 8.70088 36.9589 10.4911 36.9589 12.3574C36.9589 14.2234 37.7 16.0134 39.0198 17.3332C40.3395 18.6525 42.1293 19.3941 43.9956 19.3941C45.8602 19.389 47.6474 18.6462 48.9659 17.3277C50.2843 16.0088 51.0276 14.222 51.0327 12.3574ZM40.4679 12.3574C40.4679 11.4217 40.8393 10.5243 41.5009 9.86268C42.1624 9.20112 43.0598 8.82928 43.9956 8.82928C44.9313 8.82928 45.8287 9.20112 46.4902 9.86268C47.1518 10.5242 47.5236 11.4216 47.5236 12.3574C47.5236 13.2927 47.1518 14.19 46.4902 14.8516C45.8287 15.5136 44.9313 15.885 43.9956 15.885C43.0599 15.885 42.1625 15.5136 41.5009 14.8516C40.8393 14.1901 40.4679 13.2927 40.4679 12.3574Z" fill="white"/>
<path d="M43.3538 24.6761H46.4856C47.7552 24.6719 48.9879 25.1048 49.9758 25.9024C50.4676 26.2966 51.1325 26.3985 51.7201 26.1694C52.3079 25.9407 52.7286 25.4156 52.8237 24.7924C52.9193 24.1692 52.6751 23.5425 52.1828 23.148C50.5759 21.8627 48.5815 21.1578 46.5231 21.1481H43.3539C42.7235 21.1481 42.1415 21.4846 41.8261 22.0303C41.5111 22.5761 41.5111 23.2486 41.8261 23.7943C42.1415 24.3401 42.7235 24.6761 43.3539 24.6761L43.3538 24.6761Z" fill="white"/>
<path d="M15.8099 12.3574C15.8099 10.4911 15.0683 8.70088 13.749 7.38157C12.4293 6.06184 10.6391 5.32025 8.77321 5.32025C6.90691 5.32025 5.11671 6.06182 3.79741 7.38157C2.47767 8.70088 1.73608 10.4911 1.73608 12.3574C1.73608 14.2234 2.47766 16.0134 3.79741 17.3332C5.11671 18.6525 6.90691 19.3941 8.77321 19.3941C10.6379 19.389 12.4246 18.6462 13.7435 17.3277C15.062 16.0088 15.8048 14.222 15.8099 12.3574ZM8.77321 15.8661C7.8375 15.8661 6.94011 15.4947 6.27852 14.8331C5.61695 14.1715 5.24512 13.2741 5.24512 12.3384C5.24512 11.4027 5.61695 10.5053 6.27852 9.84371C6.94008 9.18215 7.83747 8.81031 8.77321 8.81031C9.7085 8.81031 10.6059 9.18215 11.2675 9.84371C11.9295 10.5053 12.3009 11.4027 12.3009 12.3384C12.3009 13.2741 11.9295 14.1715 11.2675 14.8331C10.6059 15.4947 9.70852 15.8661 8.77321 15.8661Z" fill="white"/>
<path d="M6.321 21.1477C4.26259 21.1574 2.26821 21.8623 0.661285 23.1476C0.295765 23.4403 0.0620456 23.866 0.0106662 24.3313C-0.0407089 24.7966 0.0948883 25.2632 0.38756 25.6283C0.680227 25.9938 1.10598 26.2275 1.57125 26.2789C2.03657 26.3303 2.50316 26.1947 2.86824 25.902C3.85617 25.1044 5.08879 24.6715 6.35839 24.6757H9.39588C10.0263 24.6757 10.6082 24.3397 10.9237 23.7939C11.2387 23.2482 11.2387 22.5756 10.9237 22.0299C10.6083 21.4842 10.0263 21.1477 9.39588 21.1477L6.321 21.1477Z" fill="white"/>
</svg>