<svg width="210" height="66" viewBox="0 0 210 66" fill="none" xmlns="http://www.w3.org/2000/svg">
<path d="M110.569 17.1173C110.569 19.4424 108.681 21.3147 106.337 21.3147C103.993 21.3147 102.106 19.4424 102.106 17.1173C102.106 14.7921 103.929 12.9198 106.337 12.9198C108.747 12.9843 110.569 14.8572 110.569 17.1173ZM93.1222 25.5779V26.6115C93.1222 26.6115 91.1049 24.0269 86.8082 24.0269C79.7132 24.0269 74.1789 29.3876 74.1789 36.8141C74.1789 44.1766 79.6481 49.6012 86.8082 49.6012C91.1699 49.6012 93.1222 46.9534 93.1222 46.9534V48.0509C93.1222 48.5676 93.5137 48.9541 94.0339 48.9541H99.3061V24.6708H94.0339C93.5137 24.6728 93.1222 25.1257 93.1222 25.5779ZM93.1222 41.1412C92.1467 42.5624 90.1931 43.7896 87.85 43.7896C83.684 43.7896 80.4936 41.2063 80.4936 36.8141C80.4936 32.4224 83.684 29.8392 87.85 29.8392C90.1287 29.8392 92.2117 31.1308 93.1222 32.4869V41.1412ZM103.213 24.6727H109.462V48.956H103.213V24.6727ZM196.563 24.0263C192.267 24.0263 190.248 26.6108 190.248 26.6108V12.9843H183.999V48.956H189.273C189.793 48.956 190.183 48.5037 190.183 48.0515V46.9541C190.183 46.9541 192.202 49.6018 196.497 49.6018C203.593 49.6018 209.126 44.1786 209.126 36.816C209.126 29.4534 203.593 24.0263 196.563 24.0263ZM195.521 43.7244C193.112 43.7244 191.225 42.4986 190.248 41.0766V32.4224C191.225 31.1308 193.308 29.7747 195.521 29.7747C199.687 29.7747 202.877 32.3579 202.877 36.7495C202.877 41.1412 199.688 43.7244 195.521 43.7244ZM180.745 34.5547V49.0205H174.495V35.2644C174.495 31.2611 173.193 29.6457 169.68 29.6457C167.792 29.6457 165.839 30.6147 164.6 32.036V48.9567H158.352V24.6734H163.298C163.819 24.6734 164.21 25.1257 164.21 25.5779V26.6115C166.033 24.7379 168.441 24.0269 170.849 24.0269C173.583 24.0269 175.862 24.8031 177.685 26.3527C179.897 28.1611 180.745 30.4857 180.745 34.5547ZM143.182 24.0263C138.887 24.0263 136.868 26.6108 136.868 26.6108V12.9843H130.619V48.956H135.891C136.412 48.956 136.803 48.5037 136.803 48.0515V46.9541C136.803 46.9541 138.822 49.6018 143.117 49.6018C150.213 49.6018 155.746 44.1786 155.746 36.816C155.811 29.4527 150.278 24.0263 143.182 24.0263ZM142.14 43.7244C139.732 43.7244 137.845 42.4986 136.868 41.0766V32.4224C137.845 31.1308 139.928 29.7747 142.14 29.7747C146.308 29.7747 149.497 32.3579 149.497 36.7495C149.497 41.1412 146.308 43.7244 142.14 43.7244ZM125.216 24.0263C127.103 24.0263 128.08 24.3502 128.08 24.3502V30.0973C128.08 30.0973 122.872 28.3534 119.618 32.0353V49.0199H113.367V24.6727H118.641C119.162 24.6727 119.551 25.125 119.551 25.5773V26.6108C120.725 25.254 123.263 24.0263 125.216 24.0263ZM60.314 46.7599C59.9888 45.985 59.663 45.1457 59.3379 44.4347C58.8163 43.2728 58.2954 42.1741 57.8408 41.1412L57.7758 41.0766C53.2834 31.3889 48.4671 21.5734 43.3887 11.8869L43.1936 11.4985C42.6595 10.4937 42.1389 9.48175 41.6322 8.46304C40.9805 7.29982 40.3302 6.074 39.2884 4.91077C37.2054 2.32754 34.2107 0.90625 31.0215 0.90625C27.766 0.90625 24.8369 2.32755 22.6895 4.7811C21.7128 5.94304 20.9961 7.17015 20.3458 8.33337C19.8377 9.35144 19.3172 10.3633 18.7844 11.3689L18.5886 11.7572C13.5759 21.4437 8.69393 31.2599 4.20214 40.947L4.13647 41.0754C3.68125 42.1102 3.15968 43.2076 2.63877 44.3689C2.31361 45.0799 1.98845 45.8547 1.66329 46.6941C0.816566 49.0831 0.555773 51.3438 0.882236 53.6696C1.59824 58.5134 4.85246 62.5805 9.3449 64.3902C11.0377 65.1012 12.7955 65.4238 14.6177 65.4238C15.1386 65.4238 15.789 65.3593 16.3105 65.2941C18.4592 65.036 20.6722 64.3263 22.8209 63.0992C25.4898 61.6134 28.0287 59.4831 30.8927 56.3831C33.7567 59.4831 36.3606 61.6134 38.9645 63.0992C41.1139 64.3263 43.3262 65.036 45.4743 65.2941C45.9952 65.3599 46.6468 65.4238 47.1677 65.4238C48.9906 65.4238 50.8128 65.1012 52.4399 64.3902C56.9974 62.5805 60.1865 58.4489 60.9032 53.6696C61.4202 51.4096 61.1601 49.1502 60.314 46.7599ZM30.9558 50.1179C27.4402 45.7263 25.1614 41.5934 24.381 38.107C24.0559 36.6211 23.9902 35.3295 24.1859 34.167C24.3154 33.1334 24.7068 32.2289 25.2278 31.454C26.4647 29.7115 28.5477 28.6127 30.9565 28.6127C33.3659 28.6127 35.5139 29.6463 36.6858 31.454C37.2067 32.2289 37.5969 33.134 37.7283 34.167C37.9227 35.3302 37.8577 36.6857 37.5325 38.107C36.7489 41.5289 34.4702 45.6625 30.9558 50.1179ZM56.9284 53.1534C56.4732 56.5115 54.1945 59.4186 51.0053 60.7102C49.4432 61.3554 47.7498 61.5496 46.0583 61.3554C44.4312 61.1612 42.8027 60.6444 41.1113 59.6767C38.7675 58.3837 36.4244 56.3831 33.6898 53.4115C37.9858 48.1812 40.5897 43.4012 41.5665 39.1399C42.0224 37.1373 42.0881 35.3295 41.8917 33.6495C41.6322 32.0353 41.0456 30.5495 40.1345 29.2579C38.1152 26.3508 34.7296 24.6727 30.9552 24.6727C27.1807 24.6727 23.7951 26.4166 21.7771 29.2579C20.866 30.5495 20.2794 32.0353 20.0193 33.6495C19.7592 35.3295 19.8236 37.2018 20.3445 39.1399C21.3206 43.4012 23.9895 48.245 28.2206 53.476C25.5516 56.447 23.1428 58.4496 20.799 59.7412C19.1063 60.7102 17.4798 61.227 15.8527 61.4199C14.0955 61.6141 12.4021 61.3554 10.905 60.7747C7.71585 59.4831 5.43711 56.576 4.98189 53.2179C4.78679 51.6037 4.9162 49.9895 5.56783 48.1812C5.76227 47.5347 6.08873 46.8896 6.4139 46.1147C6.86977 45.0812 7.38938 43.9825 7.91094 42.885L7.97663 42.7566C12.4678 33.1334 17.2847 23.3173 22.2974 13.7598L22.4925 13.3714C23.0141 12.4037 23.535 11.3701 24.0552 10.4011C24.5761 9.36756 25.1614 8.39852 25.8781 7.55852C27.2451 6.01013 29.0673 5.16948 31.0859 5.16948C33.1045 5.16948 34.9267 6.01013 36.2937 7.55852C37.0103 8.40046 37.5956 9.36949 38.1165 10.4011C38.6381 11.3701 39.159 12.4037 39.6786 13.3714L39.8743 13.7598C44.8106 23.357 49.5636 33.0458 54.1307 42.8212V42.8857C54.6523 43.9205 55.1075 45.0818 55.6284 46.1166C55.9536 46.8902 56.2794 47.5354 56.4745 48.1818C56.9941 49.8592 57.1892 51.4747 56.9284 53.1534Z" fill="#050505" fill-opacity="0.47"/>
</svg>
