<svg width="199" height="61" viewBox="0 0 199 61" fill="none" xmlns="http://www.w3.org/2000/svg">
<path fill-rule="evenodd" clip-rule="evenodd" d="M123.158 47.3718C111.665 55.8399 94.949 60.3516 80.5311 60.3516C60.3322 60.3516 42.2228 52.9247 28.4317 40.5695C27.387 39.5978 28.2924 38.279 29.6158 39.0425C44.4516 47.6494 62.77 52.7859 81.7152 52.7859C94.4614 52.7859 108.531 50.1482 121.486 44.6648C123.436 43.9012 125.038 45.9836 123.158 47.3718Z" fill="#050505" fill-opacity="0.47"/>
<path fill-rule="evenodd" clip-rule="evenodd" d="M127.963 41.8893C126.5 40.0152 118.211 40.987 114.52 41.4729C113.405 41.6117 113.196 40.6399 114.241 39.9458C120.858 35.2953 131.654 36.6835 132.908 38.2106C134.161 39.7376 132.56 50.5657 126.361 55.7021C125.385 56.4657 124.48 56.0492 124.898 55.008C126.291 51.5375 129.425 43.8328 127.963 41.8893Z" fill="#050505" fill-opacity="0.47"/>
<path fill-rule="evenodd" clip-rule="evenodd" d="M114.73 7.32346V2.81174C114.73 2.11763 115.217 1.70116 115.844 1.70116H136.043C136.67 1.70116 137.227 2.18704 137.227 2.81174V6.62935C137.227 7.25405 136.67 8.08698 135.695 9.4752L125.247 24.3292C129.148 24.2597 133.257 24.815 136.74 26.7585C137.506 27.175 137.715 27.8691 137.784 28.4938V33.2832C137.784 33.9773 137.088 34.7408 136.322 34.3243C130.123 31.062 121.834 30.715 115.008 34.3938C114.312 34.7408 113.546 34.0467 113.546 33.3526V28.7715C113.546 28.0773 113.546 26.828 114.312 25.7174L126.431 8.43404H115.914C115.287 8.43404 114.73 7.94816 114.73 7.32346V7.32346ZM41.1081 35.2961H34.9788C34.4215 35.2267 33.934 34.8102 33.8643 34.2549V2.88116C33.8643 2.25646 34.4215 1.77058 35.0484 1.77058H40.7598C41.3867 1.77058 41.8046 2.25646 41.8743 2.81174V6.90699H42.0136C43.4763 2.95056 46.332 1.07647 50.0931 1.07647C53.924 1.07647 56.3618 2.95056 58.0334 6.90699C59.4961 2.95056 62.909 1.07647 66.5309 1.07647C69.108 1.07647 71.8941 2.11763 73.6354 4.54702C75.5856 7.18464 75.1677 11.0023 75.1677 14.4034V34.2549C75.1677 34.8796 74.6105 35.3655 73.9836 35.3655H67.924C67.2971 35.2961 66.8095 34.8102 66.8095 34.2549V17.5963C66.8095 16.2775 66.9488 12.9457 66.6702 11.6963C66.1827 9.61401 64.8593 8.98932 63.0483 8.98932C61.5857 8.98932 59.9837 9.96108 59.3568 11.5575C58.7299 13.154 58.7996 15.7916 58.7996 17.5963V34.2549C58.7996 34.8796 58.2424 35.3655 57.6155 35.3655H51.4862C50.8593 35.2961 50.3718 34.8102 50.3718 34.2549V17.5963C50.3718 14.1257 50.929 8.9199 46.6106 8.9199C42.2225 8.9199 42.3618 13.9175 42.3618 17.5963V34.2549C42.2922 34.8102 41.8046 35.2961 41.1081 35.2961V35.2961ZM154.64 1.07647C163.765 1.07647 168.71 8.8505 168.71 18.7763C168.71 28.355 163.277 35.9902 154.64 35.9902C145.725 35.9902 140.849 28.2162 140.849 18.4986C140.779 8.71168 145.725 1.07647 154.64 1.07647ZM154.64 7.53168C150.113 7.53168 149.834 13.7093 149.834 17.5269C149.834 21.3445 149.765 29.535 154.57 29.535C159.307 29.535 159.585 22.9409 159.585 18.9151C159.585 16.2775 159.446 13.0846 158.68 10.5858C157.983 8.36463 156.59 7.53168 154.64 7.53168ZM180.481 35.2961H174.352C173.725 35.2267 173.237 34.7408 173.237 34.1855V2.74233C173.307 2.18704 173.794 1.70116 174.421 1.70116H180.133C180.69 1.70116 181.108 2.11764 181.247 2.60352V7.39287H181.386C183.128 3.08939 185.496 1.07647 189.745 1.07647C192.461 1.07647 195.177 2.04821 196.919 4.75524C198.521 7.25404 198.521 11.4881 198.521 14.5422V34.3243C198.451 34.8796 197.963 35.2961 197.337 35.2961H191.207C190.65 35.2267 190.162 34.8102 190.093 34.3243V17.2492C190.093 13.7787 190.511 8.78109 186.262 8.78109C184.799 8.78109 183.406 9.75285 182.71 11.2799C181.874 13.2234 181.735 15.0975 181.735 17.2492V34.1855C181.665 34.8102 181.108 35.2961 180.481 35.2961V35.2961ZM98.6403 20.3033C98.6403 22.6633 98.7099 24.6762 97.5259 26.828C96.5507 28.5632 95.0184 29.6044 93.2771 29.6044C90.909 29.6044 89.5159 27.7997 89.5159 25.1621C89.5159 19.9563 94.1826 18.9845 98.6403 18.9845V20.3033ZM104.839 35.2267C104.421 35.5737 103.864 35.6431 103.377 35.3655C101.357 33.6996 100.939 32.8667 99.8244 31.2703C96.4811 34.6714 94.0433 35.7126 89.7249 35.7126C84.5707 35.7126 80.5309 32.5197 80.5309 26.2033C80.5309 21.2057 83.2473 17.8739 87.0781 16.2081C90.4214 14.7504 95.0881 14.4728 98.6403 14.0563V13.2928C98.6403 11.8352 98.7796 10.0999 97.8741 8.85051C97.108 7.73993 95.7149 7.25404 94.4612 7.25404C92.093 7.25404 90.0035 8.43404 89.5159 10.9328C89.3766 11.4881 89.0284 12.0434 88.4712 12.0434L82.5508 11.4187C82.0632 11.2799 81.506 10.9328 81.6453 10.1693C83.0383 2.95057 89.5159 0.798828 95.3667 0.798828C98.3617 0.798828 102.262 1.56235 104.63 3.85291C107.625 6.62935 107.347 10.3776 107.347 14.4034V23.9127C107.347 26.7585 108.531 28.0079 109.645 29.6044C110.063 30.1597 110.133 30.8538 109.645 31.2008C108.322 32.242 106.093 34.1855 104.839 35.2267V35.2267ZM18.1927 20.3033C18.1927 22.6633 18.2624 24.6762 17.0783 26.828C16.1032 28.5632 14.5708 29.6044 12.8296 29.6044C10.4614 29.6044 9.06838 27.7997 9.06838 25.1621C9.06838 19.9563 13.735 18.9845 18.1927 18.9845V20.3033ZM24.3221 35.2267C23.9042 35.5737 23.3469 35.6431 22.8594 35.3655C20.8395 33.6996 20.4216 32.8667 19.3072 31.2703C15.9639 34.6714 13.5261 35.7126 9.20768 35.7126C4.05346 35.7126 0.0136719 32.5197 0.0136719 26.2033C0.0136719 21.2057 2.73008 17.8739 6.56092 16.2081C9.90419 14.7504 14.5708 14.4728 18.1231 14.0563V13.2928C18.1231 11.8352 18.2624 10.0999 17.3569 8.85051C16.5907 7.73993 15.1977 7.25404 13.944 7.25404C11.5758 7.25404 9.48628 8.43404 8.99872 10.9328C8.85942 11.4881 8.51116 12.0434 7.95395 12.0434L2.03356 11.4187C1.546 11.2799 0.988798 10.9328 1.1281 10.1693C2.52113 2.95057 8.99873 0.798828 14.8495 0.798828C17.8445 0.798828 21.745 1.56235 24.1131 3.85291C27.1081 6.62935 26.8295 10.3776 26.8295 14.4034V23.9127C26.8295 26.7585 28.0136 28.0079 29.128 29.6044C29.5459 30.1597 29.6156 30.8538 29.128 31.2008C27.8046 32.242 25.5758 34.1855 24.3221 35.2267V35.2267Z" fill="#050505" fill-opacity="0.47"/>
</svg>
