<svg width="251" height="51" viewBox="0 0 251 51" fill="none" xmlns="http://www.w3.org/2000/svg">
<path d="M129.011 25.0026C126.948 25.0026 125.46 25.6815 123.952 26.3732V42.0249C125.397 42.163 126.225 42.163 127.595 42.163C132.547 42.163 133.226 39.8871 133.226 36.7094V29.2341C133.226 26.8874 132.45 25.0026 129.011 25.0026ZM96.1248 24.1484C92.6891 24.1484 91.9051 26.0413 91.9051 28.3857V29.703H100.34V28.3857C100.34 26.0413 99.5558 24.1484 96.1248 24.1484ZM32.4184 40.4395C32.4184 42.2941 33.2904 43.2574 35.2146 43.2574C37.2788 43.2574 38.5011 42.582 40.0079 41.8879V38.1752H35.4945C33.3574 38.1752 32.4184 38.5745 32.4184 40.4395ZM161 25.0026C157.559 25.0026 156.367 26.8874 156.367 29.2341V37.798C156.367 40.1505 157.559 42.0411 161 42.0411C164.432 42.0411 165.634 40.1505 165.634 37.798V29.2341C165.633 26.8874 164.431 25.0026 161 25.0026ZM15.5534 50.0422H5.43721V25.468H0.382568V17.0004H5.43837V11.9147C5.43837 5.00574 8.29122 0.898438 16.3999 0.898438H23.151V9.36838H18.9313C15.7743 9.36838 15.5662 10.5522 15.5662 12.7608L15.5534 16.9992H23.1973L22.3034 25.4668H15.5534V50.0422ZM50.1265 50.106H41.6951L41.3309 47.9659C37.4812 50.106 34.0455 50.453 31.779 50.453C25.5957 50.453 22.3045 46.3074 22.3045 40.5741C22.3045 33.8103 26.1449 31.3962 33.0151 31.3962H40.0079V29.9339C40.0079 26.4812 39.6136 25.468 34.323 25.468H25.6731L26.5185 17.0004H35.9732C47.5812 17.0004 50.1265 20.6806 50.1265 30.0024V50.106ZM78.7972 26.0889C73.5506 25.186 72.0438 24.9875 69.5194 24.9875C64.9851 24.9875 63.6148 25.9914 63.6148 29.8562V37.1667C63.6148 41.0314 64.9851 42.04 69.5194 42.04C72.0438 42.04 73.5506 41.838 78.7972 40.9316V49.1915C74.2017 50.2256 71.2077 50.4971 68.6775 50.4971C57.8166 50.4971 53.4997 44.765 53.4997 36.4842V30.5525C53.4997 22.2648 57.8166 16.5222 68.6775 16.5222C71.2077 16.5222 74.2017 16.7949 78.7972 17.8337V26.0889ZM110.455 36.4842H91.9039V37.1667C91.9039 41.0314 93.2754 42.04 97.8085 42.04C101.884 42.04 104.371 41.838 109.608 40.9316V49.1915C104.557 50.2256 101.925 50.4971 96.9701 50.4971C86.108 50.4971 81.7888 44.765 81.7888 36.4842V29.7018C81.7888 22.4563 84.9932 16.5222 96.1236 16.5222C107.254 16.5222 110.455 22.3878 110.455 29.7018V36.4842ZM143.34 36.6409C143.34 44.6443 141.06 50.482 127.253 50.482C122.266 50.482 119.342 50.0422 113.839 49.1926V3.44244L123.951 1.74915V17.7524C126.137 16.9377 128.965 16.5234 131.54 16.5234C141.654 16.5234 143.338 21.074 143.338 28.3869V36.6409H143.34ZM175.757 36.815C175.757 43.7193 172.917 50.4159 161.034 50.4159C149.145 50.4159 146.251 43.7193 146.251 36.815V30.1486C146.251 23.2408 149.145 16.5431 161.034 16.5431C172.917 16.5431 175.757 23.2408 175.757 30.1486V36.815ZM208.153 36.815C208.153 43.7193 205.309 50.4159 193.428 50.4159C181.539 50.4159 178.646 43.7193 178.646 36.815V30.1486C178.646 23.2408 181.539 16.5431 193.428 16.5431C205.309 16.5431 208.153 23.2408 208.153 30.1486V36.815ZM241.398 50.0422H230.437L221.166 34.5101V50.0422H211.049V3.44128L221.166 1.74798V31.7479L230.437 17.0004H241.398L231.277 33.0942L241.398 50.0422ZM193.393 25.0026C189.958 25.0026 188.766 26.8874 188.766 29.2341V37.798C188.766 40.1505 189.958 42.0411 193.393 42.0411C196.824 42.0411 198.039 40.1505 198.039 37.798V29.2341C198.039 26.8874 196.824 25.0026 193.393 25.0026ZM247.172 44.2462C248.875 44.2462 250.232 45.6401 250.232 47.381C250.232 49.1485 248.874 50.5273 247.159 50.5273C245.452 50.5273 244.068 49.1485 244.068 47.381C244.068 45.6401 245.452 44.2462 247.159 44.2462H247.172ZM247.159 44.7337C245.787 44.7337 244.664 45.9186 244.664 47.381C244.664 48.87 245.788 50.0399 247.172 50.0399C248.557 50.0538 249.664 48.87 249.664 47.3949C249.664 45.9198 248.557 44.7337 247.172 44.7337H247.159ZM246.578 49.2054H246.023V45.7074C246.314 45.6668 246.592 45.6262 247.008 45.6262C247.535 45.6262 247.88 45.7376 248.091 45.8896C248.296 46.044 248.406 46.2796 248.406 46.6127C248.406 47.0746 248.103 47.3519 247.729 47.4645V47.4912C248.034 47.5481 248.241 47.8243 248.311 48.3384C248.392 48.8828 248.476 49.0905 248.531 49.2042H247.949C247.867 49.0905 247.783 48.7713 247.713 48.3106C247.632 47.8661 247.408 47.699 246.964 47.699H246.579V49.2054H246.578ZM246.578 47.2695H246.98C247.436 47.2695 247.823 47.1013 247.823 46.6684C247.823 46.362 247.603 46.0567 246.98 46.0567C246.799 46.0567 246.672 46.0707 246.578 46.0834V47.2695Z" fill="#050505" fill-opacity="0.47"/>
</svg>
