<svg width="218" height="72" viewBox="0 0 218 72" fill="none" xmlns="http://www.w3.org/2000/svg">
<g clip-path="url(#clip0_0_234)">
<path d="M26.7803 0.914062H28.7141C35.4276 1.05938 42.0317 3.74781 46.7749 8.50705C45.0236 10.2872 43.2357 11.9947 41.5208 13.7749C38.8573 11.3771 35.6465 9.52429 32.1438 8.87035C26.9627 7.78045 21.3803 8.76136 17.0383 11.7041C12.2951 14.7922 9.08427 20.0237 8.39102 25.6185C7.62481 31.1407 9.19373 36.9535 12.8059 41.2405C16.2721 45.4184 21.5627 48.0342 27.0357 48.2158C32.1438 48.5065 37.4708 46.9443 41.1925 43.3839C44.1114 40.8772 45.4614 37.0625 45.8992 33.3568C39.8425 33.3568 33.7857 33.3932 27.7289 33.3568V25.8728H53.233C54.5466 33.9018 52.6493 42.948 46.5195 48.6881C42.433 52.7571 36.7776 55.1549 31.0127 55.6272C25.4303 56.1721 19.6654 55.1186 14.7032 52.4301C8.75589 49.2694 4.01263 43.9289 1.67749 37.6438C-0.511704 31.8673 -0.54819 25.3279 1.49506 19.5151C3.35587 14.2109 6.93156 9.52429 11.5289 6.25459C15.9437 3.02121 21.3073 1.24103 26.7803 0.914062Z" fill="#050505" fill-opacity="0.47"/>
<path d="M173.094 2.80273H180.902V54.6821C178.311 54.6821 175.684 54.7184 173.094 54.6458C173.13 37.389 173.094 20.0959 173.094 2.80273Z" fill="#050505" fill-opacity="0.47"/>
<path d="M70.6018 20.7852C75.418 19.8769 80.6356 20.8942 84.6126 23.7642C88.2248 26.3073 90.7424 30.3036 91.5086 34.6633C92.4938 39.7131 91.2532 45.2353 87.9694 49.2316C84.4302 53.7002 78.6288 56.098 72.9734 55.7347C67.7923 55.4441 62.7572 52.8646 59.6923 48.6503C56.2261 44.0001 55.3869 37.606 57.2842 32.1565C59.1815 26.3073 64.545 21.8387 70.6018 20.7852ZM71.6964 27.6879C69.7261 28.1965 67.9018 29.3227 66.5883 30.9213C63.0491 35.1355 63.268 42.0019 67.172 45.9256C69.3977 48.178 72.7545 49.2316 75.8559 48.614C78.7383 48.1054 81.2559 46.1799 82.6424 43.6368C85.0505 39.3135 84.3572 33.3554 80.6721 29.9767C78.3005 27.7969 74.8342 26.8886 71.6964 27.6879Z" fill="#050505" fill-opacity="0.47"/>
<path d="M109.278 20.7859C114.787 19.7323 120.808 21.2582 124.931 25.1092C131.644 31.1036 132.374 42.3296 126.645 49.2323C123.179 53.592 117.56 55.9897 112.014 55.7354C106.724 55.5901 101.506 52.9743 98.3683 48.6511C94.8291 43.8918 94.0629 37.3524 96.0697 31.7939C98.0764 26.1264 103.33 21.8031 109.278 20.7859ZM110.372 27.6886C108.402 28.1972 106.578 29.3235 105.264 30.8857C101.762 35.0273 101.908 41.7847 105.666 45.7447C107.891 48.1061 111.358 49.2687 114.568 48.6147C117.414 48.0698 119.968 46.1806 121.355 43.6375C123.726 39.2779 123.033 33.3198 119.312 29.9411C116.94 27.7613 113.474 26.8893 110.372 27.6886Z" fill="#050505" fill-opacity="0.47"/>
<path d="M142.079 22.8922C146.275 20.2764 151.858 19.5498 156.382 21.8023C157.805 22.4199 158.973 23.4735 160.104 24.5271C160.14 23.5461 160.104 22.5289 160.14 21.5117C162.585 21.548 165.029 21.5117 167.511 21.548V53.5911C167.474 58.423 166.233 63.5456 162.731 67.0696C158.9 70.9569 153.025 72.1558 147.735 71.3565C142.079 70.5209 137.154 66.4156 134.964 61.2204C137.154 60.1669 139.452 59.3313 141.714 58.3504C142.992 61.3294 145.582 63.8725 148.829 64.4538C152.077 65.0351 155.835 64.2358 157.951 61.5474C160.213 58.7863 160.213 55.008 160.104 51.6293C158.425 53.2642 156.492 54.7174 154.156 55.2623C149.085 56.6792 143.502 54.9353 139.598 51.5203C135.658 48.1053 133.323 42.8374 133.541 37.6059C133.651 31.6841 137.008 25.9803 142.079 22.8922ZM149.632 27.5425C147.406 27.9058 145.327 29.141 143.904 30.8485C140.474 34.9175 140.474 41.4205 143.94 45.4169C145.91 47.7783 149.085 49.0862 152.15 48.7592C155.032 48.4686 157.696 46.6521 159.119 44.1453C161.527 39.8947 161.125 34.1182 157.878 30.4125C155.871 28.1237 152.66 26.9975 149.632 27.5425Z" fill="#050505" fill-opacity="0.47"/>
<path d="M190.278 24.7443C194.657 20.6753 201.407 19.2948 207.026 21.4382C212.353 23.4364 215.746 28.4863 217.461 33.6815C209.543 36.9512 201.662 40.1846 193.744 43.4543C194.839 45.5251 196.517 47.4143 198.78 48.1772C201.954 49.3034 205.749 48.9038 208.412 46.7967C209.47 45.9974 210.309 44.9438 211.112 43.9266C213.119 45.2708 215.126 46.5787 217.132 47.9229C214.286 52.1735 209.507 55.1526 204.362 55.6249C198.67 56.3152 192.613 54.1353 188.928 49.7031C182.871 42.7277 183.455 31.0294 190.278 24.7443ZM194.182 31.4654C192.942 33.2455 192.431 35.4253 192.467 37.5688C197.758 35.389 203.049 33.2092 208.339 30.9931C207.463 28.9586 205.347 27.7234 203.195 27.3964C199.728 26.7788 196.116 28.6316 194.182 31.4654Z" fill="#050505" fill-opacity="0.47"/>
</g>
<defs>
<clipPath id="clip0_0_234">
<rect width="217.46" height="70.6745" fill="white" transform="translate(0 0.90625)"/>
</clipPath>
</defs>
</svg>
