<svg width="196" height="54" viewBox="0 0 196 54" fill="none" xmlns="http://www.w3.org/2000/svg">
<path d="M185.394 25.8608L195.854 53.3728C192.771 52.9354 189.69 52.3876 186.553 51.894L180.66 36.6925L174.606 50.6391C171.634 50.1455 168.715 49.9811 165.743 49.5979L176.367 25.5337L166.731 0.869141H175.65L181.044 14.6496L186.826 0.869141H195.852L185.394 25.8608ZM159.689 0.869141H151.596V48.56C154.238 48.7246 156.99 48.833 159.689 49.1603V0.869141ZM144.604 48.0123C137.228 47.5204 129.85 47.0848 122.309 46.9185V0.869352H130.566V39.153C135.301 39.2616 140.034 39.6432 144.604 39.8619V48.0123ZM113.499 19.5201V27.7229H102.215V46.3723H94.069V0.869141H117.19V9.07194H102.216V19.5204H113.501L113.499 19.5201ZM80.1945 9.07194V46.8099C77.4412 46.8099 74.6351 46.8099 71.9362 46.9185V9.07194H63.4032V0.869141H88.7804V9.07194H80.1945ZM54.486 28.1588C50.8535 28.1588 46.5586 28.1588 43.4759 28.3251V40.5199C48.3202 40.1909 53.1646 39.8093 58.0635 39.6449V47.5204L35.2193 49.3266V0.869141H58.062V9.07194H43.4756V20.1204C46.6694 20.1204 51.5685 19.956 54.4856 19.956V28.1605L54.486 28.1588ZM8.73698 23.5647V52.223C5.76693 52.5519 3.1227 52.9352 0.316406 53.3728V0.869141H8.18912L18.9228 30.6775V0.869141H27.1811V49.9811C24.2638 50.4747 21.2903 50.6391 18.1529 51.075L8.73698 23.5647Z" fill="#050505" fill-opacity="0.47"/>
</svg>
