<svg width="14" height="18" viewBox="0 0 14 18" fill="none" xmlns="http://www.w3.org/2000/svg">
<path d="M8.19379 17.3477H6.27235C5.80061 17.3477 5.41833 16.9653 5.41833 16.4936C5.41833 16.022 5.80061 15.6396 6.27235 15.6396H8.19379C8.78242 15.6396 9.26131 15.1607 9.26131 14.5721C9.26131 13.9835 8.78242 13.5046 8.19379 13.5046H7.23312C5.40734 13.5046 3.70741 12.7773 2.44602 11.4566C1.18538 10.1366 0.537499 8.40276 0.621513 6.57463C0.776945 3.19708 3.54429 0.429843 6.92162 0.274411C8.74944 0.18997 10.4837 0.838278 11.8037 2.09892C13.1244 3.36031 13.8517 5.06023 13.8517 6.88591C13.8517 7.35755 13.4693 7.73993 12.9977 7.73993C12.526 7.73993 12.1436 7.35755 12.1436 6.88591C12.1436 5.53144 11.604 4.27005 10.6241 3.33426C9.64477 2.39879 8.35669 1.91765 7.00019 1.98064C4.49546 2.09593 2.44314 4.14825 2.32785 6.65298C2.2654 8.01076 2.7461 9.29756 3.68136 10.2769C4.61726 11.2569 5.87865 11.7964 7.23312 11.7964H8.19379C9.72441 11.7964 10.9694 13.0416 10.9694 14.572C10.9694 16.1027 9.72441 17.3477 8.19379 17.3477Z" fill="url(#paint0_linear_23_318)"/>
<defs>
<linearGradient id="paint0_linear_23_318" x1="4.67993" y1="2.24708" x2="15.1526" y2="12.6749" gradientUnits="userSpaceOnUse">
<stop stop-color="#34495E"/>
<stop offset="1" stop-color="#5A914D"/>
</linearGradient>
</defs>
</svg>
